<?xml version="1.0" encoding="UTF-8" standalone="no"?>
<!DOCTYPE svg PUBLIC "-//W3C//DTD SVG 1.1//EN"
 "http://www.w3.org/Graphics/SVG/1.1/DTD/svg11.dtd">
<!-- Generated by graphviz version 2.43.0 (0)
 -->
<!-- Title: dcHierarchy Pages: 1 -->
<svg width="574pt" height="664pt"
 viewBox="0.00 0.00 574.50 664.00" xmlns="http://www.w3.org/2000/svg" xmlns:xlink="http://www.w3.org/1999/xlink">
<g id="graph0" class="graph" transform="scale(1 1) rotate(0) translate(4 660)">
<title>dcHierarchy</title>
<polygon fill="white" stroke="transparent" points="-4,4 -4,-660 570.5,-660 570.5,4 -4,4"/>
<!-- BaseMixin -->
<g id="node1" class="node">
<title>BaseMixin</title>
<g id="a_node1"><a xlink:href="classes/basemixin.html" xlink:title="BaseMixin">
<ellipse fill="lightblue" stroke="black" cx="33.49" cy="-234" rx="33.47" ry="18"/>
<text text-anchor="middle" x="33.49" y="-231.4" font-family="sans-serif" font-size="9.50">BaseMixin</text>
</a>
</g>
</g>
<!-- ColorMixin -->
<g id="node2" class="node">
<title>ColorMixin</title>
<g id="a_node2"><a xlink:href="modules.html#colormixin" xlink:title="ColorMixin">
<ellipse fill="lightblue" stroke="black" cx="141.62" cy="-396" rx="34.78" ry="18"/>
<text text-anchor="middle" x="141.62" y="-393.4" font-family="sans-serif" font-size="9.50">ColorMixin</text>
</a>
</g>
</g>
<!-- BaseMixin&#45;&gt;ColorMixin -->
<g id="edge15" class="edge">
<title>BaseMixin&#45;&gt;ColorMixin</title>
<path fill="none" stroke="black" d="M38.23,-252.22C44.8,-280.26 60.77,-334.37 91.97,-369 95.73,-373.17 100.29,-376.84 105.09,-380.02"/>
<polygon fill="black" stroke="black" points="103.49,-383.14 113.88,-385.22 107.06,-377.12 103.49,-383.14"/>
</g>
<!-- MarginMixin -->
<g id="node3" class="node">
<title>MarginMixin</title>
<g id="a_node3"><a xlink:href="classes/marginmixin.html" xlink:title="MarginMixin">
<ellipse fill="lightblue" stroke="black" cx="141.62" cy="-463" rx="38.87" ry="18"/>
<text text-anchor="middle" x="141.62" y="-460.4" font-family="sans-serif" font-size="9.50">MarginMixin</text>
</a>
</g>
</g>
<!-- BaseMixin&#45;&gt;MarginMixin -->
<g id="edge17" class="edge">
<title>BaseMixin&#45;&gt;MarginMixin</title>
<path fill="none" stroke="black" d="M36.46,-252.15C41.06,-287.66 55.01,-367.68 91.97,-423 96.67,-430.03 102.97,-436.47 109.48,-442.02"/>
<polygon fill="black" stroke="black" points="107.71,-445.09 117.72,-448.57 112.07,-439.61 107.71,-445.09"/>
</g>
<!-- CboxMenu -->
<g id="node11" class="node">
<title>CboxMenu</title>
<g id="a_node11"><a xlink:href="classes/cboxmenu.html" xlink:title="CboxMenu">
<ellipse fill="palegreen" stroke="black" cx="141.62" cy="-342" rx="33.47" ry="18"/>
<text text-anchor="middle" x="141.62" y="-339.4" font-family="sans-serif" font-size="9.50">CboxMenu</text>
</a>
</g>
</g>
<!-- BaseMixin&#45;&gt;CboxMenu -->
<g id="edge27" class="edge">
<title>BaseMixin&#45;&gt;CboxMenu</title>
<path fill="none" stroke="black" d="M43.63,-251.21C53.67,-268.88 71.16,-296.37 91.97,-315 96.25,-318.83 101.15,-322.33 106.17,-325.45"/>
<polygon fill="black" stroke="black" points="104.8,-328.7 115.21,-330.66 108.29,-322.64 104.8,-328.7"/>
</g>
<!-- DataCount -->
<g id="node13" class="node">
<title>DataCount</title>
<g id="a_node13"><a xlink:href="classes/datacount.html" xlink:title="DataCount">
<ellipse fill="palegreen" stroke="black" cx="141.62" cy="-288" rx="34.78" ry="18"/>
<text text-anchor="middle" x="141.62" y="-285.4" font-family="sans-serif" font-size="9.50">DataCount</text>
</a>
</g>
</g>
<!-- BaseMixin&#45;&gt;DataCount -->
<g id="edge12" class="edge">
<title>BaseMixin&#45;&gt;DataCount</title>
<path fill="none" stroke="black" d="M58.31,-246.12C72.71,-253.45 91.3,-262.91 107.17,-270.98"/>
<polygon fill="black" stroke="black" points="105.65,-274.13 116.15,-275.55 108.82,-267.89 105.65,-274.13"/>
</g>
<!-- DataGrid -->
<g id="node14" class="node">
<title>DataGrid</title>
<g id="a_node14"><a xlink:href="classes/datagrid.html" xlink:title="DataGrid">
<ellipse fill="palegreen" stroke="black" cx="141.62" cy="-234" rx="30.04" ry="18"/>
<text text-anchor="middle" x="141.62" y="-231.4" font-family="sans-serif" font-size="9.50">DataGrid</text>
</a>
</g>
</g>
<!-- BaseMixin&#45;&gt;DataGrid -->
<g id="edge13" class="edge">
<title>BaseMixin&#45;&gt;DataGrid</title>
<path fill="none" stroke="black" d="M67.2,-234C78.02,-234 90.17,-234 101.42,-234"/>
<polygon fill="black" stroke="black" points="101.44,-237.5 111.44,-234 101.44,-230.5 101.44,-237.5"/>
</g>
<!-- DataTable -->
<g id="node15" class="node">
<title>DataTable</title>
<g id="a_node15"><a xlink:href="classes/datatable.html" xlink:title="DataTable">
<ellipse fill="palegreen" stroke="black" cx="141.62" cy="-180" rx="32.82" ry="18"/>
<text text-anchor="middle" x="141.62" y="-177.4" font-family="sans-serif" font-size="9.50">DataTable</text>
</a>
</g>
</g>
<!-- BaseMixin&#45;&gt;DataTable -->
<g id="edge14" class="edge">
<title>BaseMixin&#45;&gt;DataTable</title>
<path fill="none" stroke="black" d="M58.31,-221.88C72.92,-214.45 91.83,-204.82 107.85,-196.68"/>
<polygon fill="black" stroke="black" points="109.56,-199.73 116.88,-192.08 106.38,-193.49 109.56,-199.73"/>
</g>
<!-- NumberDisplay -->
<g id="node19" class="node">
<title>NumberDisplay</title>
<g id="a_node19"><a xlink:href="classes/numberdisplay.html" xlink:title="NumberDisplay">
<ellipse fill="palegreen" stroke="black" cx="141.62" cy="-126" rx="47.19" ry="18"/>
<text text-anchor="middle" x="141.62" y="-123.4" font-family="sans-serif" font-size="9.50">NumberDisplay</text>
</a>
</g>
</g>
<!-- BaseMixin&#45;&gt;NumberDisplay -->
<g id="edge21" class="edge">
<title>BaseMixin&#45;&gt;NumberDisplay</title>
<path fill="none" stroke="black" d="M43.63,-216.79C53.67,-199.12 71.16,-171.63 91.97,-153 95.13,-150.17 98.64,-147.52 102.27,-145.07"/>
<polygon fill="black" stroke="black" points="104.25,-147.96 110.91,-139.72 100.57,-142.01 104.25,-147.96"/>
</g>
<!-- SelectMenu -->
<g id="node23" class="node">
<title>SelectMenu</title>
<g id="a_node23"><a xlink:href="classes/selectmenu.html" xlink:title="SelectMenu">
<ellipse fill="palegreen" stroke="black" cx="141.62" cy="-72" rx="37.56" ry="18"/>
<text text-anchor="middle" x="141.62" y="-69.4" font-family="sans-serif" font-size="9.50">SelectMenu</text>
</a>
</g>
</g>
<!-- BaseMixin&#45;&gt;SelectMenu -->
<g id="edge26" class="edge">
<title>BaseMixin&#45;&gt;SelectMenu</title>
<path fill="none" stroke="black" d="M38.23,-215.78C44.8,-187.74 60.77,-133.63 91.97,-99 95.44,-95.15 99.59,-91.73 103.98,-88.73"/>
<polygon fill="black" stroke="black" points="105.9,-91.66 112.62,-83.46 102.26,-85.68 105.9,-91.66"/>
</g>
<!-- TextFilterWidget -->
<g id="node26" class="node">
<title>TextFilterWidget</title>
<g id="a_node26"><a xlink:href="classes/textfilterwidget.html" xlink:title="TextFilterWidget">
<ellipse fill="palegreen" stroke="black" cx="141.62" cy="-18" rx="49.8" ry="18"/>
<text text-anchor="middle" x="141.62" y="-15.4" font-family="sans-serif" font-size="9.50">TextFilterWidget</text>
</a>
</g>
</g>
<!-- BaseMixin&#45;&gt;TextFilterWidget -->
<g id="edge29" class="edge">
<title>BaseMixin&#45;&gt;TextFilterWidget</title>
<path fill="none" stroke="black" d="M35.56,-215.78C38.58,-179.45 49.93,-97.02 91.97,-45 94.23,-42.21 96.85,-39.66 99.69,-37.34"/>
<polygon fill="black" stroke="black" points="101.96,-40.03 108.13,-31.41 97.94,-34.3 101.96,-40.03"/>
</g>
<!-- BubbleMixin -->
<g id="node4" class="node">
<title>BubbleMixin</title>
<g id="a_node4"><a xlink:href="modules.html#bubblemixin" xlink:title="BubbleMixin">
<ellipse fill="lightblue" stroke="black" cx="278.63" cy="-328" rx="39.02" ry="18"/>
<text text-anchor="middle" x="278.63" y="-325.4" font-family="sans-serif" font-size="9.50">BubbleMixin</text>
</a>
</g>
</g>
<!-- ColorMixin&#45;&gt;BubbleMixin -->
<g id="edge8" class="edge">
<title>ColorMixin&#45;&gt;BubbleMixin</title>
<path fill="none" stroke="black" d="M165.9,-383.11C173.94,-378.65 183.01,-373.61 191.28,-369 202.4,-362.8 204.88,-360.68 216.28,-355 223.76,-351.27 231.87,-347.51 239.66,-344.03"/>
<polygon fill="black" stroke="black" points="241.21,-347.17 248.96,-339.94 238.4,-340.76 241.21,-347.17"/>
</g>
<!-- CoordinateGridMixin -->
<g id="node5" class="node">
<title>CoordinateGridMixin</title>
<g id="a_node5"><a xlink:href="classes/coordinategridmixin.html" xlink:title="CoordinateGridMixin">
<ellipse fill="lightblue" stroke="black" cx="278.63" cy="-544" rx="62.21" ry="18"/>
<text text-anchor="middle" x="278.63" y="-541.4" font-family="sans-serif" font-size="9.50">CoordinateGridMixin</text>
</a>
</g>
</g>
<!-- ColorMixin&#45;&gt;CoordinateGridMixin -->
<g id="edge1" class="edge">
<title>ColorMixin&#45;&gt;CoordinateGridMixin</title>
<path fill="none" stroke="black" d="M164.51,-409.71C173.92,-416.58 184.33,-425.65 191.28,-436 212.27,-467.28 191.21,-488.87 216.28,-517 219.15,-520.23 222.48,-523.08 226.08,-525.61"/>
<polygon fill="black" stroke="black" points="224.49,-528.74 234.85,-530.94 228.12,-522.76 224.49,-528.74"/>
</g>
<!-- GeoChoroplethChart -->
<g id="node16" class="node">
<title>GeoChoroplethChart</title>
<g id="a_node16"><a xlink:href="classes/geochoroplethchart.html" xlink:title="GeoChoroplethChart">
<ellipse fill="palegreen" stroke="black" cx="278.63" cy="-274" rx="62.21" ry="18"/>
<text text-anchor="middle" x="278.63" y="-271.4" font-family="sans-serif" font-size="9.50">GeoChoroplethChart</text>
</a>
</g>
</g>
<!-- ColorMixin&#45;&gt;GeoChoroplethChart -->
<g id="edge16" class="edge">
<title>ColorMixin&#45;&gt;GeoChoroplethChart</title>
<path fill="none" stroke="black" d="M169.83,-385.27C177.59,-381.14 185.5,-375.75 191.28,-369 212.22,-344.54 194.23,-324.47 216.28,-301 219.36,-297.71 222.92,-294.81 226.74,-292.23"/>
<polygon fill="black" stroke="black" points="228.57,-295.22 235.42,-287.13 225.02,-289.18 228.57,-295.22"/>
</g>
<!-- HeatMap -->
<g id="node17" class="node">
<title>HeatMap</title>
<g id="a_node17"><a xlink:href="classes/heatmap.html" xlink:title="HeatMap">
<ellipse fill="palegreen" stroke="black" cx="278.63" cy="-490" rx="30.04" ry="18"/>
<text text-anchor="middle" x="278.63" y="-487.4" font-family="sans-serif" font-size="9.50">HeatMap</text>
</a>
</g>
</g>
<!-- ColorMixin&#45;&gt;HeatMap -->
<g id="edge19" class="edge">
<title>ColorMixin&#45;&gt;HeatMap</title>
<path fill="none" stroke="black" d="M162.08,-411C171.19,-418.27 182.05,-427.3 191.28,-436 203.18,-447.22 202.96,-453.51 216.28,-463 224.21,-468.65 233.52,-473.5 242.45,-477.46"/>
<polygon fill="black" stroke="black" points="241.34,-480.78 251.91,-481.4 244.03,-474.32 241.34,-480.78"/>
</g>
<!-- PieChart -->
<g id="node20" class="node">
<title>PieChart</title>
<g id="a_node20"><a xlink:href="classes/piechart.html" xlink:title="PieChart">
<ellipse fill="palegreen" stroke="black" cx="278.63" cy="-220" rx="28.08" ry="18"/>
<text text-anchor="middle" x="278.63" y="-217.4" font-family="sans-serif" font-size="9.50">PieChart</text>
</a>
</g>
</g>
<!-- ColorMixin&#45;&gt;PieChart -->
<g id="edge22" class="edge">
<title>ColorMixin&#45;&gt;PieChart</title>
<path fill="none" stroke="black" d="M170.47,-385.78C178.26,-381.67 186.02,-376.16 191.28,-369 224.03,-324.38 181.51,-290.07 216.28,-247 222.86,-238.85 232.39,-233.09 241.99,-229.06"/>
<polygon fill="black" stroke="black" points="243.33,-232.29 251.51,-225.56 240.92,-225.72 243.33,-232.29"/>
</g>
<!-- RowChart -->
<g id="node21" class="node">
<title>RowChart</title>
<g id="a_node21"><a xlink:href="classes/rowchart.html" xlink:title="RowChart">
<ellipse fill="palegreen" stroke="black" cx="278.63" cy="-436" rx="31.35" ry="18"/>
<text text-anchor="middle" x="278.63" y="-433.4" font-family="sans-serif" font-size="9.50">RowChart</text>
</a>
</g>
</g>
<!-- ColorMixin&#45;&gt;RowChart -->
<g id="edge24" class="edge">
<title>ColorMixin&#45;&gt;RowChart</title>
<path fill="none" stroke="black" d="M172.25,-404.78C192.35,-410.73 219.08,-418.65 240.59,-425.03"/>
<polygon fill="black" stroke="black" points="239.79,-428.44 250.37,-427.92 241.77,-421.73 239.79,-428.44"/>
</g>
<!-- SunburstChart -->
<g id="node25" class="node">
<title>SunburstChart</title>
<g id="a_node25"><a xlink:href="classes/sunburstchart.html" xlink:title="SunburstChart">
<ellipse fill="palegreen" stroke="black" cx="278.63" cy="-382" rx="45.07" ry="18"/>
<text text-anchor="middle" x="278.63" y="-379.4" font-family="sans-serif" font-size="9.50">SunburstChart</text>
</a>
</g>
</g>
<!-- ColorMixin&#45;&gt;SunburstChart -->
<g id="edge28" class="edge">
<title>ColorMixin&#45;&gt;SunburstChart</title>
<path fill="none" stroke="black" d="M175.65,-392.58C190.39,-391.05 208.13,-389.21 224.65,-387.49"/>
<polygon fill="black" stroke="black" points="225.15,-390.96 234.74,-386.45 224.43,-384 225.15,-390.96"/>
</g>
<!-- MarginMixin&#45;&gt;CoordinateGridMixin -->
<g id="edge2" class="edge">
<title>MarginMixin&#45;&gt;CoordinateGridMixin</title>
<path fill="none" stroke="black" d="M161.53,-478.65C175.96,-490.14 196.64,-505.66 216.28,-517 221.31,-519.91 226.72,-522.71 232.16,-525.33"/>
<polygon fill="black" stroke="black" points="230.75,-528.54 241.29,-529.57 233.7,-522.19 230.75,-528.54"/>
</g>
<!-- MarginMixin&#45;&gt;HeatMap -->
<g id="edge18" class="edge">
<title>MarginMixin&#45;&gt;HeatMap</title>
<path fill="none" stroke="black" d="M177.39,-469.95C196.55,-473.79 220.36,-478.55 239.96,-482.47"/>
<polygon fill="black" stroke="black" points="239.29,-485.9 249.78,-484.43 240.66,-479.04 239.29,-485.9"/>
</g>
<!-- MarginMixin&#45;&gt;RowChart -->
<g id="edge23" class="edge">
<title>MarginMixin&#45;&gt;RowChart</title>
<path fill="none" stroke="black" d="M177.39,-456.05C196.2,-452.29 219.48,-447.63 238.87,-443.75"/>
<polygon fill="black" stroke="black" points="239.78,-447.14 248.9,-441.75 238.41,-440.27 239.78,-447.14"/>
</g>
<!-- BubbleChart -->
<g id="node9" class="node">
<title>BubbleChart</title>
<g id="a_node9"><a xlink:href="classes/bubblechart.html" xlink:title="BubbleChart">
<ellipse fill="palegreen" stroke="black" cx="416.21" cy="-395" rx="39.68" ry="18"/>
<text text-anchor="middle" x="416.21" y="-392.4" font-family="sans-serif" font-size="9.50">BubbleChart</text>
</a>
</g>
</g>
<!-- BubbleMixin&#45;&gt;BubbleChart -->
<g id="edge7" class="edge">
<title>BubbleMixin&#45;&gt;BubbleChart</title>
<path fill="none" stroke="black" d="M308.26,-340.03C318.65,-344.55 330.42,-349.84 340.98,-355 354.43,-361.57 368.97,-369.26 381.58,-376.14"/>
<polygon fill="black" stroke="black" points="379.94,-379.23 390.39,-380.98 383.31,-373.1 379.94,-379.23"/>
</g>
<!-- BubbleOverlay -->
<g id="node10" class="node">
<title>BubbleOverlay</title>
<g id="a_node10"><a xlink:href="classes/bubbleoverlay.html" xlink:title="BubbleOverlay">
<ellipse fill="palegreen" stroke="black" cx="416.21" cy="-328" rx="45.72" ry="18"/>
<text text-anchor="middle" x="416.21" y="-325.4" font-family="sans-serif" font-size="9.50">BubbleOverlay</text>
</a>
</g>
</g>
<!-- BubbleMixin&#45;&gt;BubbleOverlay -->
<g id="edge9" class="edge">
<title>BubbleMixin&#45;&gt;BubbleOverlay</title>
<path fill="none" stroke="black" d="M318.12,-328C331.22,-328 346.14,-328 360.28,-328"/>
<polygon fill="black" stroke="black" points="360.4,-331.5 370.4,-328 360.4,-324.5 360.4,-331.5"/>
</g>
<!-- StackMixin -->
<g id="node6" class="node">
<title>StackMixin</title>
<g id="a_node6"><a xlink:href="classes/stackmixin.html" xlink:title="StackMixin">
<ellipse fill="lightblue" stroke="black" cx="416.21" cy="-530" rx="34.78" ry="18"/>
<text text-anchor="middle" x="416.21" y="-527.4" font-family="sans-serif" font-size="9.50">StackMixin</text>
</a>
</g>
</g>
<!-- CoordinateGridMixin&#45;&gt;StackMixin -->
<g id="edge3" class="edge">
<title>CoordinateGridMixin&#45;&gt;StackMixin</title>
<path fill="none" stroke="black" d="M337.52,-538.02C349.09,-536.83 361.04,-535.59 372.01,-534.46"/>
<polygon fill="black" stroke="black" points="372.58,-537.92 382.17,-533.41 371.86,-530.96 372.58,-537.92"/>
</g>
<!-- BoxPlot -->
<g id="node8" class="node">
<title>BoxPlot</title>
<g id="a_node8"><a xlink:href="classes/boxplot.html" xlink:title="BoxPlot">
<ellipse fill="palegreen" stroke="black" cx="416.21" cy="-476" rx="27" ry="18"/>
<text text-anchor="middle" x="416.21" y="-473.4" font-family="sans-serif" font-size="9.50">BoxPlot</text>
</a>
</g>
</g>
<!-- CoordinateGridMixin&#45;&gt;BoxPlot -->
<g id="edge5" class="edge">
<title>CoordinateGridMixin&#45;&gt;BoxPlot</title>
<path fill="none" stroke="black" d="M314.62,-529.3C323.31,-525.45 332.55,-521.21 340.98,-517 352.38,-511.32 354.85,-509.17 365.98,-503 372.29,-499.51 379.05,-495.78 385.49,-492.25"/>
<polygon fill="black" stroke="black" points="387.51,-495.13 394.59,-487.26 384.14,-489 387.51,-495.13"/>
</g>
<!-- CoordinateGridMixin&#45;&gt;BubbleChart -->
<g id="edge6" class="edge">
<title>CoordinateGridMixin&#45;&gt;BubbleChart</title>
<path fill="none" stroke="black" d="M321.85,-530.87C328.9,-527.24 335.65,-522.68 340.98,-517 363.03,-493.53 349.27,-476.52 365.98,-449 372.61,-438.1 381.62,-427.43 390.13,-418.49"/>
<polygon fill="black" stroke="black" points="392.87,-420.7 397.4,-411.12 387.88,-415.78 392.87,-420.7"/>
</g>
<!-- CompositeChart -->
<g id="node12" class="node">
<title>CompositeChart</title>
<g id="a_node12"><a xlink:href="classes/compositechart.html" xlink:title="CompositeChart">
<ellipse fill="palegreen" stroke="black" cx="416.21" cy="-638" rx="50.46" ry="18"/>
<text text-anchor="middle" x="416.21" y="-635.4" font-family="sans-serif" font-size="9.50">CompositeChart</text>
</a>
</g>
</g>
<!-- CoordinateGridMixin&#45;&gt;CompositeChart -->
<g id="edge10" class="edge">
<title>CoordinateGridMixin&#45;&gt;CompositeChart</title>
<path fill="none" stroke="black" d="M299.89,-561.2C316.97,-575.34 342.35,-595.49 365.98,-611 369.75,-613.47 373.77,-615.93 377.82,-618.31"/>
<polygon fill="black" stroke="black" points="376.22,-621.43 386.65,-623.33 379.68,-615.34 376.22,-621.43"/>
</g>
<!-- ScatterPlot -->
<g id="node22" class="node">
<title>ScatterPlot</title>
<g id="a_node22"><a xlink:href="classes/scatterplot.html" xlink:title="ScatterPlot">
<ellipse fill="palegreen" stroke="black" cx="416.21" cy="-584" rx="35.59" ry="18"/>
<text text-anchor="middle" x="416.21" y="-581.4" font-family="sans-serif" font-size="9.50">ScatterPlot</text>
</a>
</g>
</g>
<!-- CoordinateGridMixin&#45;&gt;ScatterPlot -->
<g id="edge25" class="edge">
<title>CoordinateGridMixin&#45;&gt;ScatterPlot</title>
<path fill="none" stroke="black" d="M322.9,-556.77C339.59,-561.69 358.57,-567.29 374.96,-572.12"/>
<polygon fill="black" stroke="black" points="374.2,-575.55 384.78,-575.02 376.18,-568.84 374.2,-575.55"/>
</g>
<!-- BarChart -->
<g id="node7" class="node">
<title>BarChart</title>
<g id="a_node7"><a xlink:href="classes/barchart.html" xlink:title="BarChart">
<ellipse fill="palegreen" stroke="black" cx="528.97" cy="-503" rx="29.39" ry="18"/>
<text text-anchor="middle" x="528.97" y="-500.4" font-family="sans-serif" font-size="9.50">BarChart</text>
</a>
</g>
</g>
<!-- StackMixin&#45;&gt;BarChart -->
<g id="edge4" class="edge">
<title>StackMixin&#45;&gt;BarChart</title>
<path fill="none" stroke="black" d="M447.77,-522.55C461.27,-519.26 477.25,-515.36 491.38,-511.92"/>
<polygon fill="black" stroke="black" points="492.39,-515.28 501.28,-509.51 490.74,-508.47 492.39,-515.28"/>
</g>
<!-- LineChart -->
<g id="node18" class="node">
<title>LineChart</title>
<g id="a_node18"><a xlink:href="classes/linechart.html" xlink:title="LineChart">
<ellipse fill="palegreen" stroke="black" cx="528.97" cy="-557" rx="31.51" ry="18"/>
<text text-anchor="middle" x="528.97" y="-554.4" font-family="sans-serif" font-size="9.50">LineChart</text>
</a>
</g>
</g>
<!-- StackMixin&#45;&gt;LineChart -->
<g id="edge20" class="edge">
<title>StackMixin&#45;&gt;LineChart</title>
<path fill="none" stroke="black" d="M447.77,-537.45C460.63,-540.58 475.74,-544.27 489.36,-547.59"/>
<polygon fill="black" stroke="black" points="488.87,-551.07 499.41,-550.04 490.53,-544.27 488.87,-551.07"/>
</g>
<!-- SeriesChart -->
<g id="node24" class="node">
<title>SeriesChart</title>
<g id="a_node24"><a xlink:href="classes/serieschart.html" xlink:title="SeriesChart">
<ellipse fill="palegreen" stroke="black" cx="528.97" cy="-638" rx="37.56" ry="18"/>
<text text-anchor="middle" x="528.97" y="-635.4" font-family="sans-serif" font-size="9.50">SeriesChart</text>
</a>
</g>
</g>
<!-- CompositeChart&#45;&gt;SeriesChart -->
<g id="edge11" class="edge">
<title>CompositeChart&#45;&gt;SeriesChart</title>
<path fill="none" stroke="black" d="M466.76,-638C471.56,-638 476.41,-638 481.18,-638"/>
<polygon fill="black" stroke="black" points="481.42,-641.5 491.42,-638 481.42,-634.5 481.42,-641.5"/>
</g>
</g>
</svg>
