<?xml version="1.0" encoding="UTF-8" standalone="no"?>
<!DOCTYPE svg PUBLIC "-//W3C//DTD SVG 1.1//EN"
 "http://www.w3.org/Graphics/SVG/1.1/DTD/svg11.dtd">
<!-- Generated by graphviz version 2.40.1 (20161225.0304)
 -->
<!-- Title: dcHierarchy Pages: 1 -->
<svg width="585pt" height="692pt"
 viewBox="0.00 0.00 585.17 692.00" xmlns="http://www.w3.org/2000/svg" xmlns:xlink="http://www.w3.org/1999/xlink">
<g id="graph0" class="graph" transform="scale(1 1) rotate(0) translate(4 688)">
<title>dcHierarchy</title>
<polygon fill="#ffffff" stroke="transparent" points="-4,4 -4,-688 581.1706,-688 581.1706,4 -4,4"/>
<!-- BaseMixin -->
<g id="node1" class="node">
<title>BaseMixin</title>
<g id="a_node1"><a xlink:href="BaseMixin.html" xlink:title="BaseMixin">
<ellipse fill="#add8e6" stroke="#000000" cx="31.2508" cy="-261" rx="31.0035" ry="18"/>
<text text-anchor="middle" x="31.2508" y="-258" font-family="sans-serif" font-size="10.00" fill="#000000">BaseMixin</text>
</a>
</g>
</g>
<!-- ColorMixin -->
<g id="node2" class="node">
<title>ColorMixin</title>
<g id="a_node2"><a xlink:href="ColorMixin.html" xlink:title="ColorMixin">
<ellipse fill="#add8e6" stroke="#000000" cx="144.5075" cy="-450" rx="31.7762" ry="18"/>
<text text-anchor="middle" x="144.5075" y="-447" font-family="sans-serif" font-size="10.00" fill="#000000">ColorMixin</text>
</a>
</g>
</g>
<!-- BaseMixin&#45;&gt;ColorMixin -->
<g id="edge15" class="edge">
<title>BaseMixin&#45;&gt;ColorMixin</title>
<path fill="none" stroke="#000000" d="M34.7764,-279.0528C41.8575,-311.2713 60.4905,-379.3786 98.5015,-423 101.9125,-426.9144 106.0358,-430.4092 110.396,-433.4804"/>
<polygon fill="#000000" stroke="#000000" points="108.6201,-436.4982 118.9475,-438.8636 112.3492,-430.5742 108.6201,-436.4982"/>
</g>
<!-- MarginMixin -->
<g id="node3" class="node">
<title>MarginMixin</title>
<g id="a_node3"><a xlink:href="MarginMixin.html" xlink:title="MarginMixin">
<ellipse fill="#add8e6" stroke="#000000" cx="144.5075" cy="-531" rx="35.9791" ry="18"/>
<text text-anchor="middle" x="144.5075" y="-528" font-family="sans-serif" font-size="10.00" fill="#000000">MarginMixin</text>
</a>
</g>
</g>
<!-- BaseMixin&#45;&gt;MarginMixin -->
<g id="edge17" class="edge">
<title>BaseMixin&#45;&gt;MarginMixin</title>
<path fill="none" stroke="#000000" d="M34.3155,-279.0407C41.3623,-317.3914 61.0591,-409.0659 98.5015,-477 104.479,-487.8452 112.8579,-498.5014 120.8299,-507.444"/>
<polygon fill="#000000" stroke="#000000" points="118.2987,-509.862 127.6602,-514.8233 123.4359,-505.107 118.2987,-509.862"/>
</g>
<!-- CapMixin -->
<g id="node7" class="node">
<title>CapMixin</title>
<g id="a_node7"><a xlink:href="CapMixin.html" xlink:title="CapMixin">
<ellipse fill="#add8e6" stroke="#000000" cx="144.5075" cy="-396" rx="28.8663" ry="18"/>
<text text-anchor="middle" x="144.5075" y="-393" font-family="sans-serif" font-size="10.00" fill="#000000">CapMixin</text>
</a>
</g>
</g>
<!-- BaseMixin&#45;&gt;CapMixin -->
<g id="edge23" class="edge">
<title>BaseMixin&#45;&gt;CapMixin</title>
<path fill="none" stroke="#000000" d="M38.8723,-278.4938C49.5536,-301.4635 70.8131,-342.0282 98.5015,-369 102.5648,-372.9581 107.3173,-376.5677 112.1966,-379.7691"/>
<polygon fill="#000000" stroke="#000000" points="110.6245,-382.9083 120.9949,-385.0778 114.2409,-376.9148 110.6245,-382.9083"/>
</g>
<!-- DataCount -->
<g id="node14" class="node">
<title>DataCount</title>
<g id="a_node14"><a xlink:href="DataCount.html" xlink:title="DataCount">
<ellipse fill="#98fb98" stroke="#000000" cx="144.5075" cy="-342" rx="32.4426" ry="18"/>
<text text-anchor="middle" x="144.5075" y="-339" font-family="sans-serif" font-size="10.00" fill="#000000">DataCount</text>
</a>
</g>
</g>
<!-- BaseMixin&#45;&gt;DataCount -->
<g id="edge12" class="edge">
<title>BaseMixin&#45;&gt;DataCount</title>
<path fill="none" stroke="#000000" d="M48.6885,-276.1712C61.9551,-287.4205 80.8733,-302.8457 98.5015,-315 102.8689,-318.0112 107.5852,-321.0267 112.2756,-323.8937"/>
<polygon fill="#000000" stroke="#000000" points="110.7816,-327.0775 121.1649,-329.1841 114.3616,-321.0622 110.7816,-327.0775"/>
</g>
<!-- DataGrid -->
<g id="node15" class="node">
<title>DataGrid</title>
<g id="a_node15"><a xlink:href="DataGrid.html" xlink:title="DataGrid">
<ellipse fill="#98fb98" stroke="#000000" cx="144.5075" cy="-288" rx="27.9443" ry="18"/>
<text text-anchor="middle" x="144.5075" y="-285" font-family="sans-serif" font-size="10.00" fill="#000000">DataGrid</text>
</a>
</g>
</g>
<!-- BaseMixin&#45;&gt;DataGrid -->
<g id="edge13" class="edge">
<title>BaseMixin&#45;&gt;DataGrid</title>
<path fill="none" stroke="#000000" d="M60.4172,-267.9532C75.0411,-271.4395 92.889,-275.6943 108.3736,-279.3858"/>
<polygon fill="#000000" stroke="#000000" points="107.6112,-282.8021 118.1503,-281.7165 109.2345,-275.9929 107.6112,-282.8021"/>
</g>
<!-- DataTable -->
<g id="node16" class="node">
<title>DataTable</title>
<g id="a_node16"><a xlink:href="DataTable.html" xlink:title="DataTable">
<ellipse fill="#98fb98" stroke="#000000" cx="144.5075" cy="-234" rx="30.7334" ry="18"/>
<text text-anchor="middle" x="144.5075" y="-231" font-family="sans-serif" font-size="10.00" fill="#000000">DataTable</text>
</a>
</g>
</g>
<!-- BaseMixin&#45;&gt;DataTable -->
<g id="edge14" class="edge">
<title>BaseMixin&#45;&gt;DataTable</title>
<path fill="none" stroke="#000000" d="M60.4172,-254.0468C74.2628,-250.7461 90.9983,-246.7564 105.882,-243.2082"/>
<polygon fill="#000000" stroke="#000000" points="106.9162,-246.5598 115.832,-240.8361 105.2929,-239.7506 106.9162,-246.5598"/>
</g>
<!-- NumberDisplay -->
<g id="node20" class="node">
<title>NumberDisplay</title>
<g id="a_node20"><a xlink:href="NumberDisplay.html" xlink:title="NumberDisplay">
<ellipse fill="#98fb98" stroke="#000000" cx="144.5075" cy="-180" rx="44.1667" ry="18"/>
<text text-anchor="middle" x="144.5075" y="-177" font-family="sans-serif" font-size="10.00" fill="#000000">NumberDisplay</text>
</a>
</g>
</g>
<!-- BaseMixin&#45;&gt;NumberDisplay -->
<g id="edge21" class="edge">
<title>BaseMixin&#45;&gt;NumberDisplay</title>
<path fill="none" stroke="#000000" d="M48.6885,-245.8288C61.9551,-234.5795 80.8733,-219.1543 98.5015,-207 102.0183,-204.5753 105.7613,-202.1478 109.5349,-199.7972"/>
<polygon fill="#000000" stroke="#000000" points="111.5607,-202.6623 118.3031,-194.4898 107.9359,-196.6739 111.5607,-202.6623"/>
</g>
<!-- SelectMenu -->
<g id="node24" class="node">
<title>SelectMenu</title>
<g id="a_node24"><a xlink:href="SelectMenu.html" xlink:title="SelectMenu">
<ellipse fill="#98fb98" stroke="#000000" cx="144.5075" cy="-126" rx="35.2149" ry="18"/>
<text text-anchor="middle" x="144.5075" y="-123" font-family="sans-serif" font-size="10.00" fill="#000000">SelectMenu</text>
</a>
</g>
</g>
<!-- BaseMixin&#45;&gt;SelectMenu -->
<g id="edge29" class="edge">
<title>BaseMixin&#45;&gt;SelectMenu</title>
<path fill="none" stroke="#000000" d="M38.8723,-243.5062C49.5536,-220.5365 70.8131,-179.9718 98.5015,-153 101.9677,-149.6235 105.9355,-146.5006 110.0557,-143.6684"/>
<polygon fill="#000000" stroke="#000000" points="112.0206,-146.5672 118.6152,-138.275 108.2888,-140.6448 112.0206,-146.5672"/>
</g>
<!-- CboxMenu -->
<g id="node25" class="node">
<title>CboxMenu</title>
<g id="a_node25"><a xlink:href="CboxMenu.html" xlink:title="CboxMenu">
<ellipse fill="#98fb98" stroke="#000000" cx="144.5075" cy="-72" rx="32.5782" ry="18"/>
<text text-anchor="middle" x="144.5075" y="-69" font-family="sans-serif" font-size="10.00" fill="#000000">CboxMenu</text>
</a>
</g>
</g>
<!-- BaseMixin&#45;&gt;CboxMenu -->
<g id="edge30" class="edge">
<title>BaseMixin&#45;&gt;CboxMenu</title>
<path fill="none" stroke="#000000" d="M34.7764,-242.9472C41.8575,-210.7287 60.4905,-142.6214 98.5015,-99 101.7528,-95.2689 105.6512,-91.919 109.7851,-88.9538"/>
<polygon fill="#000000" stroke="#000000" points="111.9246,-91.7404 118.4691,-83.4085 108.1572,-85.8406 111.9246,-91.7404"/>
</g>
<!-- TextFilterWidget -->
<g id="node27" class="node">
<title>TextFilterWidget</title>
<g id="a_node27"><a xlink:href="TextFilterWidget.html" xlink:title="TextFilterWidget">
<ellipse fill="#98fb98" stroke="#000000" cx="144.5075" cy="-18" rx="46.0118" ry="18"/>
<text text-anchor="middle" x="144.5075" y="-15" font-family="sans-serif" font-size="10.00" fill="#000000">TextFilterWidget</text>
</a>
</g>
</g>
<!-- BaseMixin&#45;&gt;TextFilterWidget -->
<g id="edge33" class="edge">
<title>BaseMixin&#45;&gt;TextFilterWidget</title>
<path fill="none" stroke="#000000" d="M32.5409,-242.7479C36.225,-202.781 49.9078,-106.2157 98.5015,-45 100.5744,-42.3887 102.974,-39.978 105.5676,-37.7629"/>
<polygon fill="#000000" stroke="#000000" points="107.8219,-40.4495 113.797,-31.7002 103.6699,-34.8137 107.8219,-40.4495"/>
</g>
<!-- BubbleMixin -->
<g id="node4" class="node">
<title>BubbleMixin</title>
<g id="a_node4"><a xlink:href="BubbleMixin.html" xlink:title="BubbleMixin">
<ellipse fill="#add8e6" stroke="#000000" cx="284.4074" cy="-396" rx="36.1373" ry="18"/>
<text text-anchor="middle" x="284.4074" y="-393" font-family="sans-serif" font-size="10.00" fill="#000000">BubbleMixin</text>
</a>
</g>
</g>
<!-- ColorMixin&#45;&gt;BubbleMixin -->
<g id="edge8" class="edge">
<title>ColorMixin&#45;&gt;BubbleMixin</title>
<path fill="none" stroke="#000000" d="M171.1509,-439.7159C192.3331,-431.5398 222.2504,-419.992 246.0174,-410.8182"/>
<polygon fill="#000000" stroke="#000000" points="247.3831,-414.0428 255.4519,-407.1765 244.8623,-407.5124 247.3831,-414.0428"/>
</g>
<!-- CoordinateGridMixin -->
<g id="node5" class="node">
<title>CoordinateGridMixin</title>
<g id="a_node5"><a xlink:href="CoordinateGridMixin.html" xlink:title="CoordinateGridMixin">
<ellipse fill="#add8e6" stroke="#000000" cx="284.4074" cy="-558" rx="57.4867" ry="18"/>
<text text-anchor="middle" x="284.4074" y="-555" font-family="sans-serif" font-size="10.00" fill="#000000">CoordinateGridMixin</text>
</a>
</g>
</g>
<!-- ColorMixin&#45;&gt;CoordinateGridMixin -->
<g id="edge1" class="edge">
<title>ColorMixin&#45;&gt;CoordinateGridMixin</title>
<path fill="none" stroke="#000000" d="M158.2302,-466.6031C173.4944,-484.2871 199.5726,-512.2585 226.5134,-531 230.6742,-533.8945 235.1946,-536.6161 239.8136,-539.1342"/>
<polygon fill="#000000" stroke="#000000" points="238.2539,-542.2677 248.749,-543.7179 241.4489,-536.0394 238.2539,-542.2677"/>
</g>
<!-- GeoChoroplethChart -->
<g id="node17" class="node">
<title>GeoChoroplethChart</title>
<g id="a_node17"><a xlink:href="GeoChoroplethChart.html" xlink:title="GeoChoroplethChart">
<ellipse fill="#98fb98" stroke="#000000" cx="284.4074" cy="-504" rx="57.7882" ry="18"/>
<text text-anchor="middle" x="284.4074" y="-501" font-family="sans-serif" font-size="10.00" fill="#000000">GeoChoroplethChart</text>
</a>
</g>
</g>
<!-- ColorMixin&#45;&gt;GeoChoroplethChart -->
<g id="edge16" class="edge">
<title>ColorMixin&#45;&gt;GeoChoroplethChart</title>
<path fill="none" stroke="#000000" d="M171.1509,-460.2841C190.1421,-467.6145 216.1548,-477.6552 238.4614,-486.2653"/>
<polygon fill="#000000" stroke="#000000" points="237.4965,-489.6445 248.086,-489.9803 240.0172,-483.1141 237.4965,-489.6445"/>
</g>
<!-- HeatMap -->
<g id="node18" class="node">
<title>HeatMap</title>
<g id="a_node18"><a xlink:href="HeatMap.html" xlink:title="HeatMap">
<ellipse fill="#98fb98" stroke="#000000" cx="284.4074" cy="-612" rx="28.091" ry="18"/>
<text text-anchor="middle" x="284.4074" y="-609" font-family="sans-serif" font-size="10.00" fill="#000000">HeatMap</text>
</a>
</g>
</g>
<!-- ColorMixin&#45;&gt;HeatMap -->
<g id="edge19" class="edge">
<title>ColorMixin&#45;&gt;HeatMap</title>
<path fill="none" stroke="#000000" d="M160.3356,-466.0516C169.8904,-476.3157 181.8512,-490.2427 190.5134,-504 211.504,-537.3376 198.9107,-556.8915 226.5134,-585 232.8931,-591.4967 241.1354,-596.6033 249.3894,-600.5433"/>
<polygon fill="#000000" stroke="#000000" points="248.0453,-603.7751 258.6148,-604.5079 250.8092,-597.3439 248.0453,-603.7751"/>
</g>
<!-- PieChart -->
<g id="node21" class="node">
<title>PieChart</title>
<g id="a_node21"><a xlink:href="PieChart.html" xlink:title="PieChart">
<ellipse fill="#98fb98" stroke="#000000" cx="284.4074" cy="-288" rx="27.1629" ry="18"/>
<text text-anchor="middle" x="284.4074" y="-285" font-family="sans-serif" font-size="10.00" fill="#000000">PieChart</text>
</a>
</g>
</g>
<!-- ColorMixin&#45;&gt;PieChart -->
<g id="edge22" class="edge">
<title>ColorMixin&#45;&gt;PieChart</title>
<path fill="none" stroke="#000000" d="M170.3554,-439.1056C177.6997,-434.9691 185.1499,-429.6201 190.5134,-423 222.364,-383.6867 192.8445,-352.7678 226.5134,-315 232.7333,-308.0228 241.1328,-302.7133 249.6025,-298.7296"/>
<polygon fill="#000000" stroke="#000000" points="251.1996,-301.8558 259.0825,-294.7769 248.5057,-295.3949 251.1996,-301.8558"/>
</g>
<!-- RowChart -->
<g id="node22" class="node">
<title>RowChart</title>
<g id="a_node22"><a xlink:href="RowChart.html" xlink:title="RowChart">
<ellipse fill="#98fb98" stroke="#000000" cx="284.4074" cy="-450" rx="30.0748" ry="18"/>
<text text-anchor="middle" x="284.4074" y="-447" font-family="sans-serif" font-size="10.00" fill="#000000">RowChart</text>
</a>
</g>
</g>
<!-- ColorMixin&#45;&gt;RowChart -->
<g id="edge27" class="edge">
<title>ColorMixin&#45;&gt;RowChart</title>
<path fill="none" stroke="#000000" d="M176.6033,-450C196.5693,-450 222.4232,-450 243.8071,-450"/>
<polygon fill="#000000" stroke="#000000" points="243.9003,-453.5001 253.9002,-450 243.9002,-446.5001 243.9003,-453.5001"/>
</g>
<!-- SunburstChart -->
<g id="node26" class="node">
<title>SunburstChart</title>
<g id="a_node26"><a xlink:href="SunburstChart.html" xlink:title="SunburstChart">
<ellipse fill="#98fb98" stroke="#000000" cx="284.4074" cy="-342" rx="41.6904" ry="18"/>
<text text-anchor="middle" x="284.4074" y="-339" font-family="sans-serif" font-size="10.00" fill="#000000">SunburstChart</text>
</a>
</g>
</g>
<!-- ColorMixin&#45;&gt;SunburstChart -->
<g id="edge31" class="edge">
<title>ColorMixin&#45;&gt;SunburstChart</title>
<path fill="none" stroke="#000000" d="M169.3319,-438.157C176.6347,-433.9819 184.3186,-428.8497 190.5134,-423 211.4852,-403.1964 204.6311,-387.7928 226.5134,-369 231.3722,-364.8272 236.985,-361.1631 242.7643,-357.9904"/>
<polygon fill="#000000" stroke="#000000" points="244.5307,-361.0201 251.8989,-353.407 241.3913,-354.7635 244.5307,-361.0201"/>
</g>
<!-- MarginMixin&#45;&gt;CoordinateGridMixin -->
<g id="edge2" class="edge">
<title>MarginMixin&#45;&gt;CoordinateGridMixin</title>
<path fill="none" stroke="#000000" d="M178.017,-537.4672C192.2757,-540.219 209.3372,-543.5118 225.5779,-546.6462"/>
<polygon fill="#000000" stroke="#000000" points="225.0695,-550.1126 235.5516,-548.5711 226.3961,-543.2394 225.0695,-550.1126"/>
</g>
<!-- MarginMixin&#45;&gt;HeatMap -->
<g id="edge18" class="edge">
<title>MarginMixin&#45;&gt;HeatMap</title>
<path fill="none" stroke="#000000" d="M165.2186,-545.8549C181.4907,-557.2241 204.9334,-572.9474 226.5134,-585 234.5333,-589.4792 243.424,-593.8863 251.7826,-597.7992"/>
<polygon fill="#000000" stroke="#000000" points="250.3696,-601.0016 260.9188,-601.9844 253.285,-594.6376 250.3696,-601.0016"/>
</g>
<!-- MarginMixin&#45;&gt;RowChart -->
<g id="edge26" class="edge">
<title>MarginMixin&#45;&gt;RowChart</title>
<path fill="none" stroke="#000000" d="M165.2186,-516.1451C181.4907,-504.7759 204.9334,-489.0526 226.5134,-477 234.1686,-472.7245 242.6174,-468.5145 250.6394,-464.7375"/>
<polygon fill="#000000" stroke="#000000" points="252.1685,-467.8867 259.7874,-460.5245 249.2402,-461.5286 252.1685,-467.8867"/>
</g>
<!-- BubbleChart -->
<g id="node10" class="node">
<title>BubbleChart</title>
<g id="a_node10"><a xlink:href="BubbleChart.html" xlink:title="BubbleChart">
<ellipse fill="#98fb98" stroke="#000000" cx="424.6343" cy="-450" rx="36.9296" ry="18"/>
<text text-anchor="middle" x="424.6343" y="-447" font-family="sans-serif" font-size="10.00" fill="#000000">BubbleChart</text>
</a>
</g>
</g>
<!-- BubbleMixin&#45;&gt;BubbleChart -->
<g id="edge7" class="edge">
<title>BubbleMixin&#45;&gt;BubbleChart</title>
<path fill="none" stroke="#000000" d="M313.1228,-407.058C334.1562,-415.1578 362.9337,-426.2397 385.9858,-435.1168"/>
<polygon fill="#000000" stroke="#000000" points="384.8857,-438.4437 395.4754,-438.7712 387.4013,-431.9113 384.8857,-438.4437"/>
</g>
<!-- BubbleOverlay -->
<g id="node11" class="node">
<title>BubbleOverlay</title>
<g id="a_node11"><a xlink:href="BubbleOverlay.html" xlink:title="BubbleOverlay">
<ellipse fill="#98fb98" stroke="#000000" cx="424.6343" cy="-396" rx="42.4754" ry="18"/>
<text text-anchor="middle" x="424.6343" y="-393" font-family="sans-serif" font-size="10.00" fill="#000000">BubbleOverlay</text>
</a>
</g>
</g>
<!-- BubbleMixin&#45;&gt;BubbleOverlay -->
<g id="edge9" class="edge">
<title>BubbleMixin&#45;&gt;BubbleOverlay</title>
<path fill="none" stroke="#000000" d="M320.5193,-396C336.0428,-396 354.5005,-396 371.5327,-396"/>
<polygon fill="#000000" stroke="#000000" points="371.9145,-399.5001 381.9145,-396 371.9145,-392.5001 371.9145,-399.5001"/>
</g>
<!-- StackMixin -->
<g id="node6" class="node">
<title>StackMixin</title>
<g id="a_node6"><a xlink:href="StackMixin.html" xlink:title="StackMixin">
<ellipse fill="#add8e6" stroke="#000000" cx="424.6343" cy="-558" rx="32.5613" ry="18"/>
<text text-anchor="middle" x="424.6343" y="-555" font-family="sans-serif" font-size="10.00" fill="#000000">StackMixin</text>
</a>
</g>
</g>
<!-- CoordinateGridMixin&#45;&gt;StackMixin -->
<g id="edge3" class="edge">
<title>CoordinateGridMixin&#45;&gt;StackMixin</title>
<path fill="none" stroke="#000000" d="M341.8477,-558C355.2021,-558 369.1911,-558 381.7888,-558"/>
<polygon fill="#000000" stroke="#000000" points="381.9993,-561.5001 391.9992,-558 381.9992,-554.5001 381.9993,-561.5001"/>
</g>
<!-- BoxPlot -->
<g id="node9" class="node">
<title>BoxPlot</title>
<g id="a_node9"><a xlink:href="BoxPlot.html" xlink:title="BoxPlot">
<ellipse fill="#98fb98" stroke="#000000" cx="424.6343" cy="-504" rx="27" ry="18"/>
<text text-anchor="middle" x="424.6343" y="-501" font-family="sans-serif" font-size="10.00" fill="#000000">BoxPlot</text>
</a>
</g>
</g>
<!-- CoordinateGridMixin&#45;&gt;BoxPlot -->
<g id="edge5" class="edge">
<title>CoordinateGridMixin&#45;&gt;BoxPlot</title>
<path fill="none" stroke="#000000" d="M320.8843,-543.9531C342.7415,-535.5361 370.3141,-524.9182 391.54,-516.7443"/>
<polygon fill="#000000" stroke="#000000" points="393.0251,-519.923 401.0993,-513.0631 390.5095,-513.3906 393.0251,-519.923"/>
</g>
<!-- CoordinateGridMixin&#45;&gt;BubbleChart -->
<g id="edge6" class="edge">
<title>CoordinateGridMixin&#45;&gt;BubbleChart</title>
<path fill="none" stroke="#000000" d="M321.7506,-544.2686C329.0139,-540.6142 336.2437,-536.2024 342.3014,-531 364.1837,-512.2072 357.299,-496.7712 378.3014,-477 381.6718,-473.8272 385.4807,-470.8684 389.4306,-468.1601"/>
<polygon fill="#000000" stroke="#000000" points="391.5905,-470.9361 398.1874,-462.6457 387.8603,-465.0128 391.5905,-470.9361"/>
</g>
<!-- CompositeChart -->
<g id="node12" class="node">
<title>CompositeChart</title>
<g id="a_node12"><a xlink:href="CompositeChart.html" xlink:title="CompositeChart">
<ellipse fill="#98fb98" stroke="#000000" cx="424.6343" cy="-666" rx="46.1664" ry="18"/>
<text text-anchor="middle" x="424.6343" y="-663" font-family="sans-serif" font-size="10.00" fill="#000000">CompositeChart</text>
</a>
</g>
</g>
<!-- CoordinateGridMixin&#45;&gt;CompositeChart -->
<g id="edge10" class="edge">
<title>CoordinateGridMixin&#45;&gt;CompositeChart</title>
<path fill="none" stroke="#000000" d="M321.7506,-571.7314C329.0139,-575.3858 336.2437,-579.7976 342.3014,-585 364.1837,-603.7928 357.299,-619.2288 378.3014,-639 381.0384,-641.5765 384.0645,-644.012 387.2205,-646.2867"/>
<polygon fill="#000000" stroke="#000000" points="385.4926,-649.3396 395.7686,-651.9192 389.3441,-643.4944 385.4926,-649.3396"/>
</g>
<!-- ScatterPlot -->
<g id="node23" class="node">
<title>ScatterPlot</title>
<g id="a_node23"><a xlink:href="ScatterPlot.html" xlink:title="ScatterPlot">
<ellipse fill="#98fb98" stroke="#000000" cx="424.6343" cy="-612" rx="32.7159" ry="18"/>
<text text-anchor="middle" x="424.6343" y="-609" font-family="sans-serif" font-size="10.00" fill="#000000">ScatterPlot</text>
</a>
</g>
</g>
<!-- CoordinateGridMixin&#45;&gt;ScatterPlot -->
<g id="edge28" class="edge">
<title>CoordinateGridMixin&#45;&gt;ScatterPlot</title>
<path fill="none" stroke="#000000" d="M320.8843,-572.0469C341.6206,-580.0322 367.5011,-589.9986 388.226,-597.9795"/>
<polygon fill="#000000" stroke="#000000" points="387.0541,-601.2787 397.6439,-601.6062 389.5697,-594.7463 387.0541,-601.2787"/>
</g>
<!-- BarChart -->
<g id="node8" class="node">
<title>BarChart</title>
<g id="a_node8"><a xlink:href="BarChart.html" xlink:title="BarChart">
<ellipse fill="#98fb98" stroke="#000000" cx="542.0689" cy="-531" rx="27.9443" ry="18"/>
<text text-anchor="middle" x="542.0689" y="-528" font-family="sans-serif" font-size="10.00" fill="#000000">BarChart</text>
</a>
</g>
</g>
<!-- StackMixin&#45;&gt;BarChart -->
<g id="edge4" class="edge">
<title>StackMixin&#45;&gt;BarChart</title>
<path fill="none" stroke="#000000" d="M454.8767,-551.0468C470.5221,-547.4497 489.7264,-543.0343 506.1259,-539.2639"/>
<polygon fill="#000000" stroke="#000000" points="506.956,-542.6644 515.9175,-537.0126 505.3875,-535.8424 506.956,-542.6644"/>
</g>
<!-- LineChart -->
<g id="node19" class="node">
<title>LineChart</title>
<g id="a_node19"><a xlink:href="LineChart.html" xlink:title="LineChart">
<ellipse fill="#98fb98" stroke="#000000" cx="542.0689" cy="-585" rx="29.8055" ry="18"/>
<text text-anchor="middle" x="542.0689" y="-582" font-family="sans-serif" font-size="10.00" fill="#000000">LineChart</text>
</a>
</g>
</g>
<!-- StackMixin&#45;&gt;LineChart -->
<g id="edge20" class="edge">
<title>StackMixin&#45;&gt;LineChart</title>
<path fill="none" stroke="#000000" d="M454.8767,-564.9532C469.817,-568.3882 488.0027,-572.5694 503.8922,-576.2226"/>
<polygon fill="#000000" stroke="#000000" points="503.4151,-579.7041 513.9451,-578.5339 504.9836,-572.8821 503.4151,-579.7041"/>
</g>
<!-- CapMixin&#45;&gt;PieChart -->
<g id="edge24" class="edge">
<title>CapMixin&#45;&gt;PieChart</title>
<path fill="none" stroke="#000000" d="M167.9085,-384.9615C175.6261,-380.6483 183.9146,-375.2312 190.5134,-369 211.4852,-349.1964 204.6311,-333.7928 226.5134,-315 233.5432,-308.9627 242.1515,-303.9901 250.559,-300.0304"/>
<polygon fill="#000000" stroke="#000000" points="252.0923,-303.1804 259.8711,-295.9873 249.3045,-296.7594 252.0923,-303.1804"/>
</g>
<!-- CapMixin&#45;&gt;RowChart -->
<g id="edge25" class="edge">
<title>CapMixin&#45;&gt;RowChart</title>
<path fill="none" stroke="#000000" d="M169.1967,-405.5298C191.3567,-414.0833 224.1371,-426.7363 249.0719,-436.3608"/>
<polygon fill="#000000" stroke="#000000" points="247.9542,-439.6811 258.5437,-440.0169 250.4749,-433.1507 247.9542,-439.6811"/>
</g>
<!-- CapMixin&#45;&gt;SunburstChart -->
<g id="edge32" class="edge">
<title>CapMixin&#45;&gt;SunburstChart</title>
<path fill="none" stroke="#000000" d="M169.1967,-386.4702C189.7419,-378.54 219.4161,-367.086 243.503,-357.7887"/>
<polygon fill="#000000" stroke="#000000" points="245.0335,-360.9497 253.1023,-354.0835 242.5128,-354.4193 245.0335,-360.9497"/>
</g>
<!-- SeriesChart -->
<g id="node13" class="node">
<title>SeriesChart</title>
<g id="a_node13"><a xlink:href="SeriesChart.html" xlink:title="SeriesChart">
<ellipse fill="#98fb98" stroke="#000000" cx="542.0689" cy="-666" rx="35.2036" ry="18"/>
<text text-anchor="middle" x="542.0689" y="-663" font-family="sans-serif" font-size="10.00" fill="#000000">SeriesChart</text>
</a>
</g>
</g>
<!-- CompositeChart&#45;&gt;SeriesChart -->
<g id="edge11" class="edge">
<title>CompositeChart&#45;&gt;SeriesChart</title>
<path fill="none" stroke="#000000" d="M471.0476,-666C479.5253,-666 488.3613,-666 496.805,-666"/>
<polygon fill="#000000" stroke="#000000" points="496.8596,-669.5001 506.8595,-666 496.8595,-662.5001 496.8596,-669.5001"/>
</g>
</g>
</svg>
