<?xml version="1.0" encoding="UTF-8" standalone="no"?>
<!DOCTYPE svg PUBLIC "-//W3C//DTD SVG 1.1//EN"
 "http://www.w3.org/Graphics/SVG/1.1/DTD/svg11.dtd">
<!-- Generated by graphviz version 2.38.0 (20140413.2041)
 -->
<!-- Title: dcHierarchy Pages: 1 -->
<svg width="558pt" height="518pt"
 viewBox="0.00 0.00 558.25 518.00" xmlns="http://www.w3.org/2000/svg" xmlns:xlink="http://www.w3.org/1999/xlink">
<g id="graph0" class="graph" transform="scale(1 1) rotate(0) translate(4 514)">
<title>dcHierarchy</title>
<polygon fill="white" stroke="none" points="-4,4 -4,-514 554.248,-514 554.248,4 -4,4"/>
<!-- baseMixin -->
<g id="node1" class="node"><title>baseMixin</title>
<g id="a_node1"><a xlink:href="dc.baseMixin.html" xlink:title="baseMixin">
<ellipse fill="lightblue" stroke="black" cx="30.6108" cy="-207" rx="30.7221" ry="18"/>
<text text-anchor="middle" x="30.6108" y="-204" font-family="sans-serif" font-size="10.00">baseMixin</text>
</a>
</g>
</g>
<!-- colorMixin -->
<g id="node2" class="node"><title>colorMixin</title>
<g id="a_node2"><a xlink:href="dc.colorMixin.html" xlink:title="colorMixin">
<ellipse fill="lightblue" stroke="black" cx="140.346" cy="-288" rx="30.7108" ry="18"/>
<text text-anchor="middle" x="140.346" y="-285" font-family="sans-serif" font-size="10.00">colorMixin</text>
</a>
</g>
</g>
<!-- baseMixin&#45;&gt;colorMixin -->
<g id="edge14" class="edge"><title>baseMixin&#45;&gt;colorMixin</title>
<path fill="none" stroke="black" d="M48.4355,-221.784C61.4346,-232.973 80.0475,-248.496 97.2217,-261 101.225,-263.914 105.533,-266.869 109.813,-269.703"/>
<polygon fill="black" stroke="black" points="108.154,-272.798 118.451,-275.295 111.959,-266.922 108.154,-272.798"/>
</g>
<!-- marginMixin -->
<g id="node3" class="node"><title>marginMixin</title>
<g id="a_node3"><a xlink:href="dc.marginMixin.html" xlink:title="marginMixin">
<ellipse fill="lightblue" stroke="black" cx="140.346" cy="-342" rx="35.9791" ry="18"/>
<text text-anchor="middle" x="140.346" y="-339" font-family="sans-serif" font-size="10.00">marginMixin</text>
</a>
</g>
</g>
<!-- baseMixin&#45;&gt;marginMixin -->
<g id="edge16" class="edge"><title>baseMixin&#45;&gt;marginMixin</title>
<path fill="none" stroke="black" d="M39.1048,-224.343C49.5901,-247.147 70.4024,-287.527 97.2217,-315 100.157,-318.007 103.487,-320.842 106.958,-323.462"/>
<polygon fill="black" stroke="black" points="104.98,-326.349 115.193,-329.166 108.966,-320.594 104.98,-326.349"/>
</g>
<!-- bubbleMixin -->
<g id="node4" class="node"><title>bubbleMixin</title>
<g id="a_node4"><a xlink:href="dc.bubbleMixin.html" xlink:title="bubbleMixin">
<ellipse fill="lightblue" stroke="black" cx="140.346" cy="-446" rx="35.3575" ry="18"/>
<text text-anchor="middle" x="140.346" y="-443" font-family="sans-serif" font-size="10.00">bubbleMixin</text>
</a>
</g>
</g>
<!-- baseMixin&#45;&gt;bubbleMixin -->
<g id="edge8" class="edge"><title>baseMixin&#45;&gt;bubbleMixin</title>
<path fill="none" stroke="black" d="M38.043,-224.788C49.1092,-254.92 72.9136,-317.727 97.2217,-369 105.414,-386.281 115.699,-405.125 124.055,-419.846"/>
<polygon fill="black" stroke="black" points="121.216,-421.932 129.226,-428.867 127.289,-418.45 121.216,-421.932"/>
</g>
<!-- capMixin -->
<g id="node7" class="node"><title>capMixin</title>
<g id="a_node7"><a xlink:href="dc.capMixin.html" xlink:title="capMixin">
<ellipse fill="lightblue" stroke="black" cx="140.346" cy="-234" rx="27.3002" ry="18"/>
<text text-anchor="middle" x="140.346" y="-231" font-family="sans-serif" font-size="10.00">capMixin</text>
</a>
</g>
</g>
<!-- baseMixin&#45;&gt;capMixin -->
<g id="edge22" class="edge"><title>baseMixin&#45;&gt;capMixin</title>
<path fill="none" stroke="black" d="M59.0758,-213.883C72.9549,-217.361 89.9405,-221.618 104.707,-225.319"/>
<polygon fill="black" stroke="black" points="103.959,-228.74 114.51,-227.776 105.661,-221.95 103.959,-228.74"/>
</g>
<!-- dataCount -->
<g id="node13" class="node"><title>dataCount</title>
<g id="a_node13"><a xlink:href="dc.dataCount.html" xlink:title="dataCount">
<ellipse fill="lightgreen" stroke="black" cx="140.346" cy="-180" rx="31.0259" ry="18"/>
<text text-anchor="middle" x="140.346" y="-177" font-family="sans-serif" font-size="10.00">dataCount</text>
</a>
</g>
</g>
<!-- baseMixin&#45;&gt;dataCount -->
<g id="edge11" class="edge"><title>baseMixin&#45;&gt;dataCount</title>
<path fill="none" stroke="black" d="M59.0758,-200.117C71.9184,-196.898 87.421,-193.013 101.364,-189.519"/>
<polygon fill="black" stroke="black" points="102.332,-192.885 111.181,-187.059 100.63,-186.095 102.332,-192.885"/>
</g>
<!-- dataGrid -->
<g id="node14" class="node"><title>dataGrid</title>
<g id="a_node14"><a xlink:href="dc.dataGrid.html" xlink:title="dataGrid">
<ellipse fill="lightgreen" stroke="black" cx="140.346" cy="-126" rx="27" ry="18"/>
<text text-anchor="middle" x="140.346" y="-123" font-family="sans-serif" font-size="10.00">dataGrid</text>
</a>
</g>
</g>
<!-- baseMixin&#45;&gt;dataGrid -->
<g id="edge12" class="edge"><title>baseMixin&#45;&gt;dataGrid</title>
<path fill="none" stroke="black" d="M48.4355,-192.216C61.4346,-181.027 80.0475,-165.504 97.2217,-153 101.587,-149.822 106.315,-146.596 110.974,-143.532"/>
<polygon fill="black" stroke="black" points="113.217,-146.25 119.731,-137.895 109.428,-140.364 113.217,-146.25"/>
</g>
<!-- dataTable -->
<g id="node15" class="node"><title>dataTable</title>
<g id="a_node15"><a xlink:href="dc.dataTable.html" xlink:title="dataTable">
<ellipse fill="lightgreen" stroke="black" cx="140.346" cy="-72" rx="29.8168" ry="18"/>
<text text-anchor="middle" x="140.346" y="-69" font-family="sans-serif" font-size="10.00">dataTable</text>
</a>
</g>
</g>
<!-- baseMixin&#45;&gt;dataTable -->
<g id="edge13" class="edge"><title>baseMixin&#45;&gt;dataTable</title>
<path fill="none" stroke="black" d="M39.1048,-189.657C49.5901,-166.853 70.4024,-126.473 97.2217,-99 100.68,-95.457 104.687,-92.1531 108.827,-89.1577"/>
<polygon fill="black" stroke="black" points="110.993,-91.9201 117.377,-83.4642 107.113,-86.0937 110.993,-91.9201"/>
</g>
<!-- numberDisplay -->
<g id="node19" class="node"><title>numberDisplay</title>
<g id="a_node19"><a xlink:href="dc.numberDisplay.html" xlink:title="numberDisplay">
<ellipse fill="lightgreen" stroke="black" cx="140.346" cy="-18" rx="43.25" ry="18"/>
<text text-anchor="middle" x="140.346" y="-15" font-family="sans-serif" font-size="10.00">numberDisplay</text>
</a>
</g>
</g>
<!-- baseMixin&#45;&gt;numberDisplay -->
<g id="edge20" class="edge"><title>baseMixin&#45;&gt;numberDisplay</title>
<path fill="none" stroke="black" d="M35.1024,-189.095C42.0933,-157.111 60.3981,-89.362 97.2217,-45 99.33,-42.4601 101.741,-40.0793 104.317,-37.8664"/>
<polygon fill="black" stroke="black" points="106.549,-40.5666 112.409,-31.7399 102.324,-34.9857 106.549,-40.5666"/>
</g>
<!-- coordinateGridMixin -->
<g id="node5" class="node"><title>coordinateGridMixin</title>
<g id="a_node5"><a xlink:href="dc.coordinateGridMixin.html" xlink:title="coordinateGridMixin">
<ellipse fill="lightblue" stroke="black" cx="276.085" cy="-342" rx="55.9203" ry="18"/>
<text text-anchor="middle" x="276.085" y="-339" font-family="sans-serif" font-size="10.00">coordinateGridMixin</text>
</a>
</g>
</g>
<!-- colorMixin&#45;&gt;coordinateGridMixin -->
<g id="edge1" class="edge"><title>colorMixin&#45;&gt;coordinateGridMixin</title>
<path fill="none" stroke="black" d="M166.188,-298.03C184.416,-305.39 209.649,-315.579 231.236,-324.295"/>
<polygon fill="black" stroke="black" points="229.963,-327.555 240.546,-328.054 232.584,-321.064 229.963,-327.555"/>
</g>
<!-- geoChoroplethChart -->
<g id="node16" class="node"><title>geoChoroplethChart</title>
<g id="a_node16"><a xlink:href="dc.geoChoroplethChart.html" xlink:title="geoChoroplethChart">
<ellipse fill="lightgreen" stroke="black" cx="276.085" cy="-234" rx="56.7285" ry="18"/>
<text text-anchor="middle" x="276.085" y="-231" font-family="sans-serif" font-size="10.00">geoChoroplethChart</text>
</a>
</g>
</g>
<!-- colorMixin&#45;&gt;geoChoroplethChart -->
<g id="edge15" class="edge"><title>colorMixin&#45;&gt;geoChoroplethChart</title>
<path fill="none" stroke="black" d="M166.188,-277.97C184.35,-270.637 209.467,-260.495 231.002,-251.8"/>
<polygon fill="black" stroke="black" points="232.331,-255.038 240.293,-248.048 229.71,-248.547 232.331,-255.038"/>
</g>
<!-- heatMap -->
<g id="node17" class="node"><title>heatMap</title>
<g id="a_node17"><a xlink:href="dc.heatMap.html" xlink:title="heatMap">
<ellipse fill="lightgreen" stroke="black" cx="276.085" cy="-396" rx="27.1742" ry="18"/>
<text text-anchor="middle" x="276.085" y="-393" font-family="sans-serif" font-size="10.00">heatMap</text>
</a>
</g>
</g>
<!-- colorMixin&#45;&gt;heatMap -->
<g id="edge18" class="edge"><title>colorMixin&#45;&gt;heatMap</title>
<path fill="none" stroke="black" d="M163.605,-299.879C170.419,-304.118 177.646,-309.278 183.471,-315 204.05,-335.212 197.736,-350.037 219.471,-369 226.214,-374.883 234.464,-379.798 242.524,-383.751"/>
<polygon fill="black" stroke="black" points="241.243,-387.013 251.797,-387.951 244.131,-380.637 241.243,-387.013"/>
</g>
<!-- pieChart -->
<g id="node20" class="node"><title>pieChart</title>
<g id="a_node20"><a xlink:href="dc.pieChart.html" xlink:title="pieChart">
<ellipse fill="lightgreen" stroke="black" cx="276.085" cy="-180" rx="27" ry="18"/>
<text text-anchor="middle" x="276.085" y="-177" font-family="sans-serif" font-size="10.00">pieChart</text>
</a>
</g>
</g>
<!-- colorMixin&#45;&gt;pieChart -->
<g id="edge21" class="edge"><title>colorMixin&#45;&gt;pieChart</title>
<path fill="none" stroke="black" d="M163.605,-276.121C170.419,-271.882 177.646,-266.722 183.471,-261 204.05,-240.788 197.736,-225.963 219.471,-207 226.214,-201.117 234.464,-196.202 242.524,-192.249"/>
<polygon fill="black" stroke="black" points="244.131,-195.363 251.797,-188.049 241.243,-188.987 244.131,-195.363"/>
</g>
<!-- rowChart -->
<g id="node21" class="node"><title>rowChart</title>
<g id="a_node21"><a xlink:href="dc.rowChart.html" xlink:title="rowChart">
<ellipse fill="lightgreen" stroke="black" cx="276.085" cy="-288" rx="28.0797" ry="18"/>
<text text-anchor="middle" x="276.085" y="-285" font-family="sans-serif" font-size="10.00">rowChart</text>
</a>
</g>
</g>
<!-- colorMixin&#45;&gt;rowChart -->
<g id="edge26" class="edge"><title>colorMixin&#45;&gt;rowChart</title>
<path fill="none" stroke="black" d="M171.027,-288C190.645,-288 216.525,-288 237.567,-288"/>
<polygon fill="black" stroke="black" points="237.764,-291.5 247.764,-288 237.764,-284.5 237.764,-291.5"/>
</g>
<!-- marginMixin&#45;&gt;coordinateGridMixin -->
<g id="edge2" class="edge"><title>marginMixin&#45;&gt;coordinateGridMixin</title>
<path fill="none" stroke="black" d="M176.136,-342C186.492,-342 198.193,-342 209.829,-342"/>
<polygon fill="black" stroke="black" points="210.002,-345.5 220.002,-342 210.002,-338.5 210.002,-345.5"/>
</g>
<!-- marginMixin&#45;&gt;heatMap -->
<g id="edge17" class="edge"><title>marginMixin&#45;&gt;heatMap</title>
<path fill="none" stroke="black" d="M168.733,-353.058C190.302,-361.767 220.408,-373.923 243.086,-383.079"/>
<polygon fill="black" stroke="black" points="242.03,-386.428 252.613,-386.926 244.651,-379.937 242.03,-386.428"/>
</g>
<!-- marginMixin&#45;&gt;rowChart -->
<g id="edge25" class="edge"><title>marginMixin&#45;&gt;rowChart</title>
<path fill="none" stroke="black" d="M168.733,-330.942C190.035,-322.341 219.666,-310.377 242.242,-301.261"/>
<polygon fill="black" stroke="black" points="243.789,-304.411 251.752,-297.422 241.169,-297.92 243.789,-304.411"/>
</g>
<!-- bubbleChart -->
<g id="node10" class="node"><title>bubbleChart</title>
<g id="a_node10"><a xlink:href="dc.bubbleChart.html" xlink:title="bubbleChart">
<ellipse fill="lightgreen" stroke="black" cx="413.75" cy="-448" rx="36.1486" ry="18"/>
<text text-anchor="middle" x="413.75" y="-445" font-family="sans-serif" font-size="10.00">bubbleChart</text>
</a>
</g>
</g>
<!-- bubbleMixin&#45;&gt;bubbleChart -->
<g id="edge7" class="edge"><title>bubbleMixin&#45;&gt;bubbleChart</title>
<path fill="none" stroke="black" d="M175.996,-446.255C224.628,-446.614 313.207,-447.266 367.144,-447.664"/>
<polygon fill="black" stroke="black" points="367.422,-451.166 377.447,-447.74 367.474,-444.166 367.422,-451.166"/>
</g>
<!-- bubbleOverlay -->
<g id="node11" class="node"><title>bubbleOverlay</title>
<g id="a_node11"><a xlink:href="dc.bubbleOverlay.html" xlink:title="bubbleOverlay">
<ellipse fill="lightgreen" stroke="black" cx="276.085" cy="-492" rx="41.696" ry="18"/>
<text text-anchor="middle" x="276.085" y="-489" font-family="sans-serif" font-size="10.00">bubbleOverlay</text>
</a>
</g>
</g>
<!-- bubbleMixin&#45;&gt;bubbleOverlay -->
<g id="edge9" class="edge"><title>bubbleMixin&#45;&gt;bubbleOverlay</title>
<path fill="none" stroke="black" d="M170.037,-455.868C188.373,-462.175 212.47,-470.463 232.958,-477.51"/>
<polygon fill="black" stroke="black" points="232.091,-480.913 242.686,-480.856 234.368,-474.294 232.091,-480.913"/>
</g>
<!-- stackMixin -->
<g id="node6" class="node"><title>stackMixin</title>
<g id="a_node6"><a xlink:href="dc.stackMixin.html" xlink:title="stackMixin">
<ellipse fill="lightblue" stroke="black" cx="413.75" cy="-232" rx="31.6332" ry="18"/>
<text text-anchor="middle" x="413.75" y="-229" font-family="sans-serif" font-size="10.00">stackMixin</text>
</a>
</g>
</g>
<!-- coordinateGridMixin&#45;&gt;stackMixin -->
<g id="edge3" class="edge"><title>coordinateGridMixin&#45;&gt;stackMixin</title>
<path fill="none" stroke="black" d="M312.727,-328.306C319.798,-324.63 326.839,-320.2 332.7,-315 354.832,-295.363 347.554,-279.696 368.7,-259 372.372,-255.406 376.606,-252.069 380.967,-249.053"/>
<polygon fill="black" stroke="black" points="382.853,-252.001 389.394,-243.667 379.083,-246.103 382.853,-252.001"/>
</g>
<!-- boxPlot -->
<g id="node9" class="node"><title>boxPlot</title>
<g id="a_node9"><a xlink:href="dc.boxPlot.html" xlink:title="boxPlot">
<ellipse fill="lightgreen" stroke="black" cx="413.75" cy="-394" rx="27" ry="18"/>
<text text-anchor="middle" x="413.75" y="-391" font-family="sans-serif" font-size="10.00">boxPlot</text>
</a>
</g>
</g>
<!-- coordinateGridMixin&#45;&gt;boxPlot -->
<g id="edge5" class="edge"><title>coordinateGridMixin&#45;&gt;boxPlot</title>
<path fill="none" stroke="black" d="M312.73,-355.662C333.644,-363.679 359.873,-373.732 380.224,-381.533"/>
<polygon fill="black" stroke="black" points="379.103,-384.851 389.693,-385.162 381.608,-378.315 379.103,-384.851"/>
</g>
<!-- coordinateGridMixin&#45;&gt;bubbleChart -->
<g id="edge6" class="edge"><title>coordinateGridMixin&#45;&gt;bubbleChart</title>
<path fill="none" stroke="black" d="M312.592,-355.849C319.672,-359.515 326.751,-363.901 332.7,-369 354.042,-387.293 348.278,-401.685 368.7,-421 371.852,-423.982 375.386,-426.801 379.045,-429.412"/>
<polygon fill="black" stroke="black" points="377.411,-432.527 387.688,-435.107 381.263,-426.682 377.411,-432.527"/>
</g>
<!-- compositeChart -->
<g id="node12" class="node"><title>compositeChart</title>
<g id="a_node12"><a xlink:href="dc.compositeChart.html" xlink:title="compositeChart">
<ellipse fill="lightgreen" stroke="black" cx="413.75" cy="-340" rx="45.1005" ry="18"/>
<text text-anchor="middle" x="413.75" y="-337" font-family="sans-serif" font-size="10.00">compositeChart</text>
</a>
</g>
</g>
<!-- coordinateGridMixin&#45;&gt;compositeChart -->
<g id="edge10" class="edge"><title>coordinateGridMixin&#45;&gt;compositeChart</title>
<path fill="none" stroke="black" d="M332.265,-341.187C340.818,-341.06 349.65,-340.93 358.189,-340.804"/>
<polygon fill="black" stroke="black" points="358.475,-344.301 368.422,-340.653 358.372,-337.301 358.475,-344.301"/>
</g>
<!-- scatterPlot -->
<g id="node22" class="node"><title>scatterPlot</title>
<g id="a_node22"><a xlink:href="dc.scatterPlot.html" xlink:title="scatterPlot">
<ellipse fill="lightgreen" stroke="black" cx="413.75" cy="-286" rx="31.7874" ry="18"/>
<text text-anchor="middle" x="413.75" y="-283" font-family="sans-serif" font-size="10.00">scatterPlot</text>
</a>
</g>
</g>
<!-- coordinateGridMixin&#45;&gt;scatterPlot -->
<g id="edge27" class="edge"><title>coordinateGridMixin&#45;&gt;scatterPlot</title>
<path fill="none" stroke="black" d="M311.319,-327.869C331.784,-319.421 357.707,-308.721 378.223,-300.252"/>
<polygon fill="black" stroke="black" points="379.613,-303.465 387.521,-296.414 376.942,-296.995 379.613,-303.465"/>
</g>
<!-- barChart -->
<g id="node8" class="node"><title>barChart</title>
<g id="a_node8"><a xlink:href="dc.barChart.html" xlink:title="barChart">
<ellipse fill="lightgreen" stroke="black" cx="522.524" cy="-259" rx="27.1629" ry="18"/>
<text text-anchor="middle" x="522.524" y="-256" font-family="sans-serif" font-size="10.00">barChart</text>
</a>
</g>
</g>
<!-- stackMixin&#45;&gt;barChart -->
<g id="edge4" class="edge"><title>stackMixin&#45;&gt;barChart</title>
<path fill="none" stroke="black" d="M442.804,-239.094C456.327,-242.514 472.675,-246.647 486.96,-250.26"/>
<polygon fill="black" stroke="black" points="486.375,-253.722 496.927,-252.78 488.091,-246.935 486.375,-253.722"/>
</g>
<!-- lineChart -->
<g id="node18" class="node"><title>lineChart</title>
<g id="a_node18"><a xlink:href="dc.lineChart.html" xlink:title="lineChart">
<ellipse fill="lightgreen" stroke="black" cx="522.524" cy="-205" rx="27.95" ry="18"/>
<text text-anchor="middle" x="522.524" y="-202" font-family="sans-serif" font-size="10.00">lineChart</text>
</a>
</g>
</g>
<!-- stackMixin&#45;&gt;lineChart -->
<g id="edge19" class="edge"><title>stackMixin&#45;&gt;lineChart</title>
<path fill="none" stroke="black" d="M442.804,-224.906C456.128,-221.537 472.194,-217.474 486.328,-213.9"/>
<polygon fill="black" stroke="black" points="487.375,-217.246 496.212,-211.401 485.659,-210.459 487.375,-217.246"/>
</g>
<!-- capMixin&#45;&gt;pieChart -->
<g id="edge23" class="edge"><title>capMixin&#45;&gt;pieChart</title>
<path fill="none" stroke="black" d="M164.033,-224.84C185.648,-216.112 218.411,-202.883 242.755,-193.054"/>
<polygon fill="black" stroke="black" points="244.325,-196.195 252.287,-189.205 241.704,-189.704 244.325,-196.195"/>
</g>
<!-- capMixin&#45;&gt;rowChart -->
<g id="edge24" class="edge"><title>capMixin&#45;&gt;rowChart</title>
<path fill="none" stroke="black" d="M164.033,-243.16C185.517,-251.835 218.014,-264.956 242.312,-274.767"/>
<polygon fill="black" stroke="black" points="241.255,-278.115 251.838,-278.613 243.875,-271.624 241.255,-278.115"/>
</g>
</g>
</svg>
