<?xml version="1.0" encoding="UTF-8" standalone="no"?>
<!DOCTYPE svg PUBLIC "-//W3C//DTD SVG 1.1//EN"
 "http://www.w3.org/Graphics/SVG/1.1/DTD/svg11.dtd">
<!-- Generated by graphviz version 2.40.1 (20161225.0304)
 -->
<!-- Title: dcHierarchy Pages: 1 -->
<svg width="574pt" height="692pt"
 viewBox="0.00 0.00 574.27 692.00" xmlns="http://www.w3.org/2000/svg" xmlns:xlink="http://www.w3.org/1999/xlink">
<g id="graph0" class="graph" transform="scale(1 1) rotate(0) translate(4 688)">
<title>dcHierarchy</title>
<polygon fill="#ffffff" stroke="transparent" points="-4,4 -4,-688 570.272,-688 570.272,4 -4,4"/>
<!-- baseMixin -->
<g id="node1" class="node">
<title>baseMixin</title>
<g id="a_node1"><a xlink:href="dc.baseMixin.html" xlink:title="baseMixin">
<ellipse fill="#add8e6" stroke="#000000" cx="30.6108" cy="-261" rx="30.7221" ry="18"/>
<text text-anchor="middle" x="30.6108" y="-258" font-family="sans-serif" font-size="10.00" fill="#000000">baseMixin</text>
</a>
</g>
</g>
<!-- colorMixin -->
<g id="node2" class="node">
<title>colorMixin</title>
<g id="a_node2"><a xlink:href="dc.colorMixin.html" xlink:title="colorMixin">
<ellipse fill="#add8e6" stroke="#000000" cx="141.9449" cy="-450" rx="30.7108" ry="18"/>
<text text-anchor="middle" x="141.9449" y="-447" font-family="sans-serif" font-size="10.00" fill="#000000">colorMixin</text>
</a>
</g>
</g>
<!-- baseMixin&#45;&gt;colorMixin -->
<g id="edge15" class="edge">
<title>baseMixin&#45;&gt;colorMixin</title>
<path fill="none" stroke="#000000" d="M34.1102,-279.0054C41.1355,-311.1487 59.6089,-379.1408 97.2217,-423 100.6037,-426.9437 104.7113,-430.4743 109.0506,-433.5793"/>
<polygon fill="#000000" stroke="#000000" points="107.2418,-436.5771 117.5506,-439.0224 111.0167,-430.6821 107.2418,-436.5771"/>
</g>
<!-- marginMixin -->
<g id="node3" class="node">
<title>marginMixin</title>
<g id="a_node3"><a xlink:href="dc.marginMixin.html" xlink:title="marginMixin">
<ellipse fill="#add8e6" stroke="#000000" cx="141.9449" cy="-531" rx="35.9791" ry="18"/>
<text text-anchor="middle" x="141.9449" y="-528" font-family="sans-serif" font-size="10.00" fill="#000000">marginMixin</text>
</a>
</g>
</g>
<!-- baseMixin&#45;&gt;marginMixin -->
<g id="edge17" class="edge">
<title>baseMixin&#45;&gt;marginMixin</title>
<path fill="none" stroke="#000000" d="M33.6841,-279.0013C40.7362,-317.2763 60.3762,-408.8141 97.2217,-477 102.9815,-487.6591 111.0229,-498.1925 118.7012,-507.0867"/>
<polygon fill="#000000" stroke="#000000" points="116.2923,-509.6429 125.5747,-514.7506 121.5035,-504.9691 116.2923,-509.6429"/>
</g>
<!-- capMixin -->
<g id="node7" class="node">
<title>capMixin</title>
<g id="a_node7"><a xlink:href="dc.capMixin.html" xlink:title="capMixin">
<ellipse fill="#add8e6" stroke="#000000" cx="141.9449" cy="-396" rx="27.3002" ry="18"/>
<text text-anchor="middle" x="141.9449" y="-393" font-family="sans-serif" font-size="10.00" fill="#000000">capMixin</text>
</a>
</g>
</g>
<!-- baseMixin&#45;&gt;capMixin -->
<g id="edge23" class="edge">
<title>baseMixin&#45;&gt;capMixin</title>
<path fill="none" stroke="#000000" d="M38.1706,-278.4463C48.762,-301.3633 69.8323,-341.8699 97.2217,-369 101.249,-372.9892 105.9755,-376.6398 110.8199,-379.8795"/>
<polygon fill="#000000" stroke="#000000" points="109.1912,-382.987 119.5413,-385.2513 112.8623,-377.0268 109.1912,-382.987"/>
</g>
<!-- dataCount -->
<g id="node14" class="node">
<title>dataCount</title>
<g id="a_node14"><a xlink:href="dc.dataCount.html" xlink:title="dataCount">
<ellipse fill="#98fb98" stroke="#000000" cx="141.9449" cy="-342" rx="31.0259" ry="18"/>
<text text-anchor="middle" x="141.9449" y="-339" font-family="sans-serif" font-size="10.00" fill="#000000">dataCount</text>
</a>
</g>
</g>
<!-- baseMixin&#45;&gt;dataCount -->
<g id="edge12" class="edge">
<title>baseMixin&#45;&gt;dataCount</title>
<path fill="none" stroke="#000000" d="M47.9048,-276.1249C61.0565,-287.3506 79.7992,-302.7664 97.2217,-315 101.4734,-317.9855 106.0616,-320.9867 110.6228,-323.8472"/>
<polygon fill="#000000" stroke="#000000" points="108.9082,-326.9012 119.2653,-329.1333 112.5607,-320.9297 108.9082,-326.9012"/>
</g>
<!-- dataGrid -->
<g id="node15" class="node">
<title>dataGrid</title>
<g id="a_node15"><a xlink:href="dc.dataGrid.html" xlink:title="dataGrid">
<ellipse fill="#98fb98" stroke="#000000" cx="141.9449" cy="-288" rx="27" ry="18"/>
<text text-anchor="middle" x="141.9449" y="-285" font-family="sans-serif" font-size="10.00" fill="#000000">dataGrid</text>
</a>
</g>
</g>
<!-- baseMixin&#45;&gt;dataGrid -->
<g id="edge13" class="edge">
<title>baseMixin&#45;&gt;dataGrid</title>
<path fill="none" stroke="#000000" d="M58.9932,-267.8831C73.3358,-271.3614 90.8888,-275.6182 106.1487,-279.3189"/>
<polygon fill="#000000" stroke="#000000" points="105.736,-282.8202 116.2792,-281.7757 107.3858,-276.0174 105.736,-282.8202"/>
</g>
<!-- dataTable -->
<g id="node16" class="node">
<title>dataTable</title>
<g id="a_node16"><a xlink:href="dc.dataTable.html" xlink:title="dataTable">
<ellipse fill="#98fb98" stroke="#000000" cx="141.9449" cy="-234" rx="29.8168" ry="18"/>
<text text-anchor="middle" x="141.9449" y="-231" font-family="sans-serif" font-size="10.00" fill="#000000">dataTable</text>
</a>
</g>
</g>
<!-- baseMixin&#45;&gt;dataTable -->
<g id="edge14" class="edge">
<title>baseMixin&#45;&gt;dataTable</title>
<path fill="none" stroke="#000000" d="M58.9932,-254.1169C72.8123,-250.7656 89.6118,-246.6915 104.469,-243.0884"/>
<polygon fill="#000000" stroke="#000000" points="105.4905,-246.4422 114.3839,-240.6839 103.8407,-239.6394 105.4905,-246.4422"/>
</g>
<!-- numberDisplay -->
<g id="node20" class="node">
<title>numberDisplay</title>
<g id="a_node20"><a xlink:href="dc.numberDisplay.html" xlink:title="numberDisplay">
<ellipse fill="#98fb98" stroke="#000000" cx="141.9449" cy="-180" rx="43.25" ry="18"/>
<text text-anchor="middle" x="141.9449" y="-177" font-family="sans-serif" font-size="10.00" fill="#000000">numberDisplay</text>
</a>
</g>
</g>
<!-- baseMixin&#45;&gt;numberDisplay -->
<g id="edge21" class="edge">
<title>baseMixin&#45;&gt;numberDisplay</title>
<path fill="none" stroke="#000000" d="M47.9048,-245.8751C61.0565,-234.6494 79.7992,-219.2336 97.2217,-207 100.6454,-204.596 104.2872,-202.1818 107.9574,-199.839"/>
<polygon fill="#000000" stroke="#000000" points="109.837,-202.7918 116.4834,-194.5409 106.1424,-196.8462 109.837,-202.7918"/>
</g>
<!-- selectMenu -->
<g id="node24" class="node">
<title>selectMenu</title>
<g id="a_node24"><a xlink:href="dc.selectMenu.html" xlink:title="selectMenu">
<ellipse fill="#98fb98" stroke="#000000" cx="141.9449" cy="-126" rx="34.2869" ry="18"/>
<text text-anchor="middle" x="141.9449" y="-123" font-family="sans-serif" font-size="10.00" fill="#000000">selectMenu</text>
</a>
</g>
</g>
<!-- baseMixin&#45;&gt;selectMenu -->
<g id="edge29" class="edge">
<title>baseMixin&#45;&gt;selectMenu</title>
<path fill="none" stroke="#000000" d="M38.1706,-243.5537C48.762,-220.6367 69.8323,-180.1301 97.2217,-153 100.4999,-149.7528 104.2414,-146.7299 108.1327,-143.9704"/>
<polygon fill="#000000" stroke="#000000" points="110.286,-146.7455 116.7686,-138.3653 106.475,-140.8738 110.286,-146.7455"/>
</g>
<!-- cboxMenu -->
<g id="node25" class="node">
<title>cboxMenu</title>
<g id="a_node25"><a xlink:href="dc.cboxMenu.html" xlink:title="cboxMenu">
<ellipse fill="#98fb98" stroke="#000000" cx="141.9449" cy="-72" rx="31.0147" ry="18"/>
<text text-anchor="middle" x="141.9449" y="-69" font-family="sans-serif" font-size="10.00" fill="#000000">cboxMenu</text>
</a>
</g>
</g>
<!-- baseMixin&#45;&gt;cboxMenu -->
<g id="edge30" class="edge">
<title>baseMixin&#45;&gt;cboxMenu</title>
<path fill="none" stroke="#000000" d="M34.1102,-242.9946C41.1355,-210.8513 59.6089,-142.8592 97.2217,-99 100.4469,-95.2392 104.3319,-91.854 108.4485,-88.8554"/>
<polygon fill="#000000" stroke="#000000" points="110.6051,-91.6282 117.086,-83.2468 106.7929,-85.7573 110.6051,-91.6282"/>
</g>
<!-- textFilterWidget -->
<g id="node27" class="node">
<title>textFilterWidget</title>
<g id="a_node27"><a xlink:href="dc.textFilterWidget.html" xlink:title="textFilterWidget">
<ellipse fill="#98fb98" stroke="#000000" cx="141.9449" cy="-18" rx="44.9476" ry="18"/>
<text text-anchor="middle" x="141.9449" y="-15" font-family="sans-serif" font-size="10.00" fill="#000000">textFilterWidget</text>
</a>
</g>
</g>
<!-- baseMixin&#45;&gt;textFilterWidget -->
<g id="edge33" class="edge">
<title>baseMixin&#45;&gt;textFilterWidget</title>
<path fill="none" stroke="#000000" d="M31.895,-242.7947C35.5566,-202.921 49.1327,-106.5301 97.2217,-45 99.2323,-42.4274 101.5618,-40.0444 104.0809,-37.8486"/>
<polygon fill="#000000" stroke="#000000" points="106.199,-40.635 112.0769,-31.8201 101.9849,-35.0455 106.199,-40.635"/>
</g>
<!-- bubbleMixin -->
<g id="node4" class="node">
<title>bubbleMixin</title>
<g id="a_node4"><a xlink:href="dc.bubbleMixin.html" xlink:title="bubbleMixin">
<ellipse fill="#add8e6" stroke="#000000" cx="279.2823" cy="-396" rx="35.3575" ry="18"/>
<text text-anchor="middle" x="279.2823" y="-393" font-family="sans-serif" font-size="10.00" fill="#000000">bubbleMixin</text>
</a>
</g>
</g>
<!-- colorMixin&#45;&gt;bubbleMixin -->
<g id="edge8" class="edge">
<title>colorMixin&#45;&gt;bubbleMixin</title>
<path fill="none" stroke="#000000" d="M167.4551,-439.9696C188.3178,-431.7665 218.1185,-420.0491 241.7108,-410.7728"/>
<polygon fill="#000000" stroke="#000000" points="243.0433,-414.0098 251.0691,-407.0932 240.4818,-407.4953 243.0433,-414.0098"/>
</g>
<!-- coordinateGridMixin -->
<g id="node5" class="node">
<title>coordinateGridMixin</title>
<g id="a_node5"><a xlink:href="dc.coordinateGridMixin.html" xlink:title="coordinateGridMixin">
<ellipse fill="#add8e6" stroke="#000000" cx="279.2823" cy="-558" rx="55.9203" ry="18"/>
<text text-anchor="middle" x="279.2823" y="-555" font-family="sans-serif" font-size="10.00" fill="#000000">coordinateGridMixin</text>
</a>
</g>
</g>
<!-- colorMixin&#45;&gt;coordinateGridMixin -->
<g id="edge1" class="edge">
<title>colorMixin&#45;&gt;coordinateGridMixin</title>
<path fill="none" stroke="#000000" d="M155.1585,-466.2533C170.1264,-483.894 195.9322,-512.0716 222.6681,-531 226.6786,-533.8393 231.0343,-536.5166 235.4889,-539.0007"/>
<polygon fill="#000000" stroke="#000000" points="234.2097,-542.2816 244.6925,-543.8185 237.4561,-536.0799 234.2097,-542.2816"/>
</g>
<!-- geoChoroplethChart -->
<g id="node17" class="node">
<title>geoChoroplethChart</title>
<g id="a_node17"><a xlink:href="dc.geoChoroplethChart.html" xlink:title="geoChoroplethChart">
<ellipse fill="#98fb98" stroke="#000000" cx="279.2823" cy="-504" rx="56.7285" ry="18"/>
<text text-anchor="middle" x="279.2823" y="-501" font-family="sans-serif" font-size="10.00" fill="#000000">geoChoroplethChart</text>
</a>
</g>
</g>
<!-- colorMixin&#45;&gt;geoChoroplethChart -->
<g id="edge16" class="edge">
<title>colorMixin&#45;&gt;geoChoroplethChart</title>
<path fill="none" stroke="#000000" d="M167.4551,-460.0304C186.1052,-467.3635 211.8979,-477.505 234.013,-486.2005"/>
<polygon fill="#000000" stroke="#000000" points="232.967,-489.55 243.5542,-489.952 235.5285,-483.0355 232.967,-489.55"/>
</g>
<!-- heatMap -->
<g id="node18" class="node">
<title>heatMap</title>
<g id="a_node18"><a xlink:href="dc.heatMap.html" xlink:title="heatMap">
<ellipse fill="#98fb98" stroke="#000000" cx="279.2823" cy="-612" rx="27.1742" ry="18"/>
<text text-anchor="middle" x="279.2823" y="-609" font-family="sans-serif" font-size="10.00" fill="#000000">heatMap</text>
</a>
</g>
</g>
<!-- colorMixin&#45;&gt;heatMap -->
<g id="edge19" class="edge">
<title>colorMixin&#45;&gt;heatMap</title>
<path fill="none" stroke="#000000" d="M157.2994,-466.1225C166.5757,-476.4132 178.2016,-490.3434 186.6681,-504 207.4261,-537.4829 195.1869,-556.7727 222.6681,-585 228.8922,-591.3931 236.9318,-596.4597 244.9871,-600.394"/>
<polygon fill="#000000" stroke="#000000" points="243.7795,-603.6863 254.3427,-604.5041 246.595,-597.2775 243.7795,-603.6863"/>
</g>
<!-- pieChart -->
<g id="node21" class="node">
<title>pieChart</title>
<g id="a_node21"><a xlink:href="dc.pieChart.html" xlink:title="pieChart">
<ellipse fill="#98fb98" stroke="#000000" cx="279.2823" cy="-288" rx="27" ry="18"/>
<text text-anchor="middle" x="279.2823" y="-285" font-family="sans-serif" font-size="10.00" fill="#000000">pieChart</text>
</a>
</g>
</g>
<!-- colorMixin&#45;&gt;pieChart -->
<g id="edge22" class="edge">
<title>colorMixin&#45;&gt;pieChart</title>
<path fill="none" stroke="#000000" d="M166.6088,-439.2456C173.8981,-435.0662 181.3425,-429.6575 186.6681,-423 218.2739,-383.4895 189.1624,-352.9127 222.6681,-315 228.6933,-308.1823 236.8164,-302.9387 245.0261,-298.9681"/>
<polygon fill="#000000" stroke="#000000" points="246.4225,-302.1775 254.2247,-295.0098 243.6556,-295.7476 246.4225,-302.1775"/>
</g>
<!-- rowChart -->
<g id="node22" class="node">
<title>rowChart</title>
<g id="a_node22"><a xlink:href="dc.rowChart.html" xlink:title="rowChart">
<ellipse fill="#98fb98" stroke="#000000" cx="279.2823" cy="-450" rx="28.0797" ry="18"/>
<text text-anchor="middle" x="279.2823" y="-447" font-family="sans-serif" font-size="10.00" fill="#000000">rowChart</text>
</a>
</g>
</g>
<!-- colorMixin&#45;&gt;rowChart -->
<g id="edge27" class="edge">
<title>colorMixin&#45;&gt;rowChart</title>
<path fill="none" stroke="#000000" d="M172.7661,-450C192.8834,-450 219.3031,-450 240.7972,-450"/>
<polygon fill="#000000" stroke="#000000" points="240.904,-453.5001 250.904,-450 240.9039,-446.5001 240.904,-453.5001"/>
</g>
<!-- sunburstChart -->
<g id="node26" class="node">
<title>sunburstChart</title>
<g id="a_node26"><a xlink:href="dc.sunburstChart.html" xlink:title="sunburstChart">
<ellipse fill="#98fb98" stroke="#000000" cx="279.2823" cy="-342" rx="40.7619" ry="18"/>
<text text-anchor="middle" x="279.2823" y="-339" font-family="sans-serif" font-size="10.00" fill="#000000">sunburstChart</text>
</a>
</g>
</g>
<!-- colorMixin&#45;&gt;sunburstChart -->
<g id="edge31" class="edge">
<title>colorMixin&#45;&gt;sunburstChart</title>
<path fill="none" stroke="#000000" d="M165.6038,-438.3257C172.8393,-434.097 180.506,-428.8917 186.6681,-423 207.5165,-403.0665 200.8671,-387.8869 222.6681,-369 227.4212,-364.8823 232.9108,-361.2484 238.5628,-358.0895"/>
<polygon fill="#000000" stroke="#000000" points="240.19,-361.1885 247.4957,-353.5154 236.9995,-354.9579 240.19,-361.1885"/>
</g>
<!-- marginMixin&#45;&gt;coordinateGridMixin -->
<g id="edge2" class="edge">
<title>marginMixin&#45;&gt;coordinateGridMixin</title>
<path fill="none" stroke="#000000" d="M175.5414,-537.6049C189.3515,-540.32 205.7486,-543.5436 221.3821,-546.617"/>
<polygon fill="#000000" stroke="#000000" points="221.023,-550.1134 231.5104,-548.6082 222.3734,-543.2449 221.023,-550.1134"/>
</g>
<!-- marginMixin&#45;&gt;heatMap -->
<g id="edge18" class="edge">
<title>marginMixin&#45;&gt;heatMap</title>
<path fill="none" stroke="#000000" d="M162.328,-545.8335C178.3434,-557.1911 201.4184,-572.9094 222.6681,-585 230.4912,-589.4512 239.1645,-593.8427 247.3234,-597.7491"/>
<polygon fill="#000000" stroke="#000000" points="246.0428,-601.0141 256.5832,-602.0865 249.0121,-594.6751 246.0428,-601.0141"/>
</g>
<!-- marginMixin&#45;&gt;rowChart -->
<g id="edge26" class="edge">
<title>marginMixin&#45;&gt;rowChart</title>
<path fill="none" stroke="#000000" d="M162.328,-516.1665C178.3434,-504.8089 201.4184,-489.0906 222.6681,-477 230.3552,-472.6263 238.8631,-468.3101 246.8973,-464.4552"/>
<polygon fill="#000000" stroke="#000000" points="248.4689,-467.5839 256.0335,-460.1659 245.494,-461.2475 248.4689,-467.5839"/>
</g>
<!-- bubbleChart -->
<g id="node10" class="node">
<title>bubbleChart</title>
<g id="a_node10"><a xlink:href="dc.bubbleChart.html" xlink:title="bubbleChart">
<ellipse fill="#98fb98" stroke="#000000" cx="416.9467" cy="-450" rx="36.1486" ry="18"/>
<text text-anchor="middle" x="416.9467" y="-447" font-family="sans-serif" font-size="10.00" fill="#000000">bubbleChart</text>
</a>
</g>
</g>
<!-- bubbleMixin&#45;&gt;bubbleChart -->
<g id="edge7" class="edge">
<title>bubbleMixin&#45;&gt;bubbleChart</title>
<path fill="none" stroke="#000000" d="M307.4729,-407.058C328.122,-415.1578 356.3736,-426.2397 379.0044,-435.1168"/>
<polygon fill="#000000" stroke="#000000" points="377.7331,-438.3777 388.3206,-438.7712 380.2893,-431.8611 377.7331,-438.3777"/>
</g>
<!-- bubbleOverlay -->
<g id="node11" class="node">
<title>bubbleOverlay</title>
<g id="a_node11"><a xlink:href="dc.bubbleOverlay.html" xlink:title="bubbleOverlay">
<ellipse fill="#98fb98" stroke="#000000" cx="416.9467" cy="-396" rx="41.696" ry="18"/>
<text text-anchor="middle" x="416.9467" y="-393" font-family="sans-serif" font-size="10.00" fill="#000000">bubbleOverlay</text>
</a>
</g>
</g>
<!-- bubbleMixin&#45;&gt;bubbleOverlay -->
<g id="edge9" class="edge">
<title>bubbleMixin&#45;&gt;bubbleOverlay</title>
<path fill="none" stroke="#000000" d="M314.7343,-396C329.9741,-396 348.0945,-396 364.8154,-396"/>
<polygon fill="#000000" stroke="#000000" points="365.0075,-399.5001 375.0075,-396 365.0075,-392.5001 365.0075,-399.5001"/>
</g>
<!-- stackMixin -->
<g id="node6" class="node">
<title>stackMixin</title>
<g id="a_node6"><a xlink:href="dc.stackMixin.html" xlink:title="stackMixin">
<ellipse fill="#add8e6" stroke="#000000" cx="416.9467" cy="-558" rx="31.6332" ry="18"/>
<text text-anchor="middle" x="416.9467" y="-555" font-family="sans-serif" font-size="10.00" fill="#000000">stackMixin</text>
</a>
</g>
</g>
<!-- coordinateGridMixin&#45;&gt;stackMixin -->
<g id="edge3" class="edge">
<title>coordinateGridMixin&#45;&gt;stackMixin</title>
<path fill="none" stroke="#000000" d="M335.2757,-558C348.5352,-558 362.4538,-558 374.968,-558"/>
<polygon fill="#000000" stroke="#000000" points="375.1043,-561.5001 385.1043,-558 375.1043,-554.5001 375.1043,-561.5001"/>
</g>
<!-- boxPlot -->
<g id="node9" class="node">
<title>boxPlot</title>
<g id="a_node9"><a xlink:href="dc.boxPlot.html" xlink:title="boxPlot">
<ellipse fill="#98fb98" stroke="#000000" cx="416.9467" cy="-504" rx="27" ry="18"/>
<text text-anchor="middle" x="416.9467" y="-501" font-family="sans-serif" font-size="10.00" fill="#000000">boxPlot</text>
</a>
</g>
</g>
<!-- coordinateGridMixin&#45;&gt;boxPlot -->
<g id="edge5" class="edge">
<title>coordinateGridMixin&#45;&gt;boxPlot</title>
<path fill="none" stroke="#000000" d="M315.0926,-543.9531C336.4128,-535.5901 363.2723,-525.0542 384.0556,-516.9018"/>
<polygon fill="#000000" stroke="#000000" points="385.3954,-520.1359 393.4268,-513.2259 382.8392,-513.6193 385.3954,-520.1359"/>
</g>
<!-- coordinateGridMixin&#45;&gt;bubbleChart -->
<g id="edge6" class="edge">
<title>coordinateGridMixin&#45;&gt;bubbleChart</title>
<path fill="none" stroke="#000000" d="M315.7967,-544.1622C322.8998,-540.5155 329.9706,-536.1338 335.8964,-531 357.6974,-512.1131 351.016,-496.9 371.8964,-477 375.1782,-473.8723 378.8846,-470.9411 382.7267,-468.248"/>
<polygon fill="#000000" stroke="#000000" points="384.7406,-471.1139 391.2427,-462.7489 380.9433,-465.2333 384.7406,-471.1139"/>
</g>
<!-- compositeChart -->
<g id="node12" class="node">
<title>compositeChart</title>
<g id="a_node12"><a xlink:href="dc.compositeChart.html" xlink:title="compositeChart">
<ellipse fill="#98fb98" stroke="#000000" cx="416.9467" cy="-666" rx="45.1005" ry="18"/>
<text text-anchor="middle" x="416.9467" y="-663" font-family="sans-serif" font-size="10.00" fill="#000000">compositeChart</text>
</a>
</g>
</g>
<!-- coordinateGridMixin&#45;&gt;compositeChart -->
<g id="edge10" class="edge">
<title>coordinateGridMixin&#45;&gt;compositeChart</title>
<path fill="none" stroke="#000000" d="M315.7967,-571.8378C322.8998,-575.4845 329.9706,-579.8662 335.8964,-585 357.6974,-603.8869 351.016,-619.1 371.8964,-639 374.5615,-641.5399 377.5065,-643.9503 380.5768,-646.2087"/>
<polygon fill="#000000" stroke="#000000" points="378.6433,-649.1263 388.8908,-651.817 382.5579,-643.3232 378.6433,-649.1263"/>
</g>
<!-- scatterPlot -->
<g id="node23" class="node">
<title>scatterPlot</title>
<g id="a_node23"><a xlink:href="dc.scatterPlot.html" xlink:title="scatterPlot">
<ellipse fill="#98fb98" stroke="#000000" cx="416.9467" cy="-612" rx="31.7874" ry="18"/>
<text text-anchor="middle" x="416.9467" y="-609" font-family="sans-serif" font-size="10.00" fill="#000000">scatterPlot</text>
</a>
</g>
</g>
<!-- coordinateGridMixin&#45;&gt;scatterPlot -->
<g id="edge28" class="edge">
<title>coordinateGridMixin&#45;&gt;scatterPlot</title>
<path fill="none" stroke="#000000" d="M315.0926,-572.0469C335.3578,-579.9961 360.6277,-589.9084 380.9272,-597.8711"/>
<polygon fill="#000000" stroke="#000000" points="379.8619,-601.2128 390.4494,-601.6062 382.4181,-594.6962 379.8619,-601.2128"/>
</g>
<!-- barChart -->
<g id="node8" class="node">
<title>barChart</title>
<g id="a_node8"><a xlink:href="dc.barChart.html" xlink:title="barChart">
<ellipse fill="#98fb98" stroke="#000000" cx="532.1344" cy="-531" rx="27.1629" ry="18"/>
<text text-anchor="middle" x="532.1344" y="-528" font-family="sans-serif" font-size="10.00" fill="#000000">barChart</text>
</a>
</g>
</g>
<!-- stackMixin&#45;&gt;barChart -->
<g id="edge4" class="edge">
<title>stackMixin&#45;&gt;barChart</title>
<path fill="none" stroke="#000000" d="M446.3114,-551.1169C461.5119,-547.5539 480.1976,-543.174 496.2484,-539.4117"/>
<polygon fill="#000000" stroke="#000000" points="497.4151,-542.7332 506.3524,-537.0433 495.8175,-535.9179 497.4151,-542.7332"/>
</g>
<!-- lineChart -->
<g id="node19" class="node">
<title>lineChart</title>
<g id="a_node19"><a xlink:href="dc.lineChart.html" xlink:title="lineChart">
<ellipse fill="#98fb98" stroke="#000000" cx="532.1344" cy="-585" rx="27.95" ry="18"/>
<text text-anchor="middle" x="532.1344" y="-582" font-family="sans-serif" font-size="10.00" fill="#000000">lineChart</text>
</a>
</g>
</g>
<!-- stackMixin&#45;&gt;lineChart -->
<g id="edge20" class="edge">
<title>stackMixin&#45;&gt;lineChart</title>
<path fill="none" stroke="#000000" d="M446.3114,-564.8831C461.4025,-568.4204 479.9289,-572.763 495.9015,-576.507"/>
<polygon fill="#000000" stroke="#000000" points="495.4324,-579.9918 505.9673,-578.8664 497.03,-573.1766 495.4324,-579.9918"/>
</g>
<!-- capMixin&#45;&gt;pieChart -->
<g id="edge24" class="edge">
<title>capMixin&#45;&gt;pieChart</title>
<path fill="none" stroke="#000000" d="M164.224,-385.1234C171.8544,-380.7588 180.1127,-375.2678 186.6681,-369 207.5165,-349.0665 200.8671,-333.8869 222.6681,-315 229.4119,-309.1577 237.6385,-304.2892 245.7078,-300.3698"/>
<polygon fill="#000000" stroke="#000000" points="247.3145,-303.4853 255.0101,-296.2032 244.453,-297.0969 247.3145,-303.4853"/>
</g>
<!-- capMixin&#45;&gt;rowChart -->
<g id="edge25" class="edge">
<title>capMixin&#45;&gt;rowChart</title>
<path fill="none" stroke="#000000" d="M165.554,-405.2829C187.626,-413.9615 220.8181,-427.0123 245.6552,-436.7781"/>
<polygon fill="#000000" stroke="#000000" points="244.4716,-440.0735 255.0588,-440.4755 247.0331,-433.559 244.4716,-440.0735"/>
</g>
<!-- capMixin&#45;&gt;sunburstChart -->
<g id="edge32" class="edge">
<title>capMixin&#45;&gt;sunburstChart</title>
<path fill="none" stroke="#000000" d="M165.554,-386.7171C185.7758,-378.766 215.3315,-367.1449 239.2445,-357.7425"/>
<polygon fill="#000000" stroke="#000000" points="240.7423,-360.9145 248.768,-353.998 238.1808,-354.4 240.7423,-360.9145"/>
</g>
<!-- seriesChart -->
<g id="node13" class="node">
<title>seriesChart</title>
<g id="a_node13"><a xlink:href="dc.seriesChart.html" xlink:title="seriesChart">
<ellipse fill="#98fb98" stroke="#000000" cx="532.1344" cy="-666" rx="34.2756" ry="18"/>
<text text-anchor="middle" x="532.1344" y="-663" font-family="sans-serif" font-size="10.00" fill="#000000">seriesChart</text>
</a>
</g>
</g>
<!-- compositeChart&#45;&gt;seriesChart -->
<g id="edge11" class="edge">
<title>compositeChart&#45;&gt;seriesChart</title>
<path fill="none" stroke="#000000" d="M462.1413,-666C470.4729,-666 479.1679,-666 487.4832,-666"/>
<polygon fill="#000000" stroke="#000000" points="487.7572,-669.5001 497.7571,-666 487.7571,-662.5001 487.7572,-669.5001"/>
</g>
</g>
</svg>
